<svg width="131" height="131" viewBox="0 0 131 131" fill="none" xmlns="http://www.w3.org/2000/svg">
<g clip-path="url(#clip0_1632_710)">
<path fill-rule="evenodd" clip-rule="evenodd" d="M107.068 30.7349C106.108 30.6226 99.3581 30.4652 99.0301 30.7952C98.6998 31.1275 98.8563 37.8672 98.969 38.8289C99.9278 38.941 106.68 39.0979 107.007 38.7686C107.336 38.4365 107.181 31.6961 107.068 30.7349Z" fill="#CDCDCD"/>
<path fill-rule="evenodd" clip-rule="evenodd" d="M57.7271 128.993C57.2077 128.578 50.2027 128.795 49.5376 128.795L49.5491 137.065L57.7275 136.978L57.7271 128.993Z" fill="#CDCDCD"/>
<path fill-rule="evenodd" clip-rule="evenodd" d="M57.7273 14.1482L57.7285 6.16133L49.5493 6.07651L49.5386 14.3463L55.8181 14.3466C56.297 14.3488 57.3336 14.4625 57.7273 14.1484L57.7273 14.1482Z" fill="#CDCDCD"/>
<path fill-rule="evenodd" clip-rule="evenodd" d="M131.877 87.912L131.79 79.7387L123.8 79.7339C123.774 79.7667 123.751 79.8168 123.74 79.8435C123.497 80.4675 123.602 80.8739 123.606 81.6471L123.602 87.9241L131.877 87.912Z" fill="#CDCDCD"/>
<path fill-rule="evenodd" clip-rule="evenodd" d="M8.19104 63.4015L8.20377 62.7735L8.20173 55.2083L0.631772 55.2083L0.00219984 55.2166L0 63.415L8.19104 63.4015Z" fill="#CDCDCD"/>
<path fill-rule="evenodd" clip-rule="evenodd" d="M131.804 63.4045L131.791 55.2187L131.162 55.2059L123.593 55.2081L123.593 56.3752L123.595 58.9293L123.593 61.3337L123.599 63.4025L131.804 63.4045Z" fill="#CDCDCD"/>
<path fill-rule="evenodd" clip-rule="evenodd" d="M8.20173 14.3561L8.20047 6.14868L0.00219984 6.16109L-4.87405e-10 14.3449L8.20173 14.3561Z" fill="#CDCDCD"/>
<path fill-rule="evenodd" clip-rule="evenodd" d="M82.3962 14.3561L82.3949 6.16124L74.1841 6.15905L74.1978 14.3449L82.3962 14.3561Z" fill="#CDCDCD"/>
<path fill-rule="evenodd" clip-rule="evenodd" d="M131.792 136.98L131.793 128.796L123.593 128.785L123.595 136.992L131.792 136.98Z" fill="#CDCDCD"/>
<path fill-rule="evenodd" clip-rule="evenodd" d="M57.6102 63.4054L57.7307 63.2849L57.7277 55.2093L49.5288 55.2082L49.5389 63.4037L57.6102 63.4054Z" fill="#CDCDCD"/>
<path fill-rule="evenodd" clip-rule="evenodd" d="M57.098 87.933L57.7276 87.9247L57.7284 79.7387L49.5388 79.7392L49.5304 85.3263L49.5281 87.933L57.098 87.933Z" fill="#CDCDCD"/>
<path fill-rule="evenodd" clip-rule="evenodd" d="M74.3142 79.7356L74.199 80.0161L74.1943 87.9224L82.3962 87.9336L82.395 79.7386L74.3142 79.7356Z" fill="#CDCDCD"/>
<path fill-rule="evenodd" clip-rule="evenodd" d="M82.3854 136.979L82.3981 136.351L82.3961 128.833L74.8261 128.786L74.1965 128.794L74.1943 136.992L82.3854 136.979Z" fill="#CDCDCD"/>
<path fill-rule="evenodd" clip-rule="evenodd" d="M8.20172 87.9337L8.20046 79.7263L0.00219691 79.7387L0.00219726 87.8856L8.20172 87.9337Z" fill="#CDCDCD"/>
<path fill-rule="evenodd" clip-rule="evenodd" d="M82.3362 30.6238L74.2489 30.6857C73.8841 33.0408 74.533 36.5275 74.1062 38.8561L82.3857 38.8644L82.3362 30.624L82.3362 30.6238Z" fill="#CDCDCD"/>
<path fill-rule="evenodd" clip-rule="evenodd" d="M107.095 6.07115C104.765 6.49772 101.277 5.84923 98.9204 6.21377L98.8582 14.296L107.104 14.3455L107.095 6.07115Z" fill="#CDCDCD"/>
<path fill-rule="evenodd" clip-rule="evenodd" d="M131.882 30.7077L123.605 30.7025L123.649 38.9399L131.74 38.8777C132.104 36.523 131.455 33.0364 131.882 30.7079L131.882 30.7077Z" fill="#CDCDCD"/>
<path fill-rule="evenodd" clip-rule="evenodd" d="M107.179 55.268L98.9365 55.2204L98.9417 63.4928C101.272 63.0662 104.76 63.7147 107.117 63.3502L107.179 55.268L107.179 55.268Z" fill="#CDCDCD"/>
<path fill-rule="evenodd" clip-rule="evenodd" d="M76.3951 112.441L78.8594 112.441L81.1965 112.441L82.2888 112.443C82.5127 111.678 82.5127 105.041 82.2888 104.276L81.1965 104.278L78.8594 104.278L76.3951 104.278L74.2297 104.329L74.1931 112.23C74.445 112.672 75.8612 112.438 76.3949 112.441L76.3951 112.441Z" fill="#CDCDCD"/>
<path fill-rule="evenodd" clip-rule="evenodd" d="M131.791 14.1482L131.793 6.16128L123.8 6.15642C123.589 6.42593 123.742 6.07458 123.643 6.5043C123.6 6.68868 123.599 6.74758 123.588 6.93887C123.571 7.25425 123.6 7.73421 123.602 8.06985L123.602 14.3462L129.882 14.3465C130.195 14.348 130.551 14.366 130.855 14.3604L131.791 14.1483L131.791 14.1482Z" fill="#CDCDCD"/>
<path fill-rule="evenodd" clip-rule="evenodd" d="M25.138 63.406L33.0443 63.3694L33.099 61.3655L33.0952 58.7426L33.0952 56.407L33.1012 55.3079C32.3655 55.1113 25.6288 55.1097 24.9252 55.3155L24.927 56.407L24.927 58.7426L24.927 61.2055C24.9376 61.6765 24.7069 63.2389 25.138 63.4058L25.138 63.406Z" fill="#CDCDCD"/>
<path fill-rule="evenodd" clip-rule="evenodd" d="M82.1884 63.4073C82.3992 63.1378 82.2466 63.4892 82.3456 63.0595L82.3865 55.2175L74.6746 55.2284C74.6257 55.2372 74.5841 55.2469 74.5396 55.2584L74.3013 55.3557C74.2745 55.3663 74.2243 55.3898 74.1917 55.4154L74.1961 63.4023L82.1884 63.4072L82.1884 63.4073Z" fill="#CDCDCD"/>
<path fill-rule="evenodd" clip-rule="evenodd" d="M8.3461 136.664L8.49965 136.192L8.49965 136.03L8.49965 132.673L8.49965 131.232L8.4701 128.478L0.233642 128.511L0.313321 128.641L0.322279 136.66L8.3461 136.664Z" fill="#CDCDCD"/>
<path fill-rule="evenodd" clip-rule="evenodd" d="M100.586 112.441L103.05 112.441L105.387 112.441L107.068 112.431L107.113 104.312L105.387 104.278L103.05 104.278L100.586 104.278L99.0573 104.279C98.7402 105.255 98.9371 110.741 98.9294 112.2L99.0573 112.439L100.586 112.441Z" fill="#CDCDCD"/>
<path fill-rule="evenodd" clip-rule="evenodd" d="M49.9277 112.441L52.2648 112.441L54.7293 112.441L57.0664 112.441L57.6628 112.445L57.7314 104.489L57.6988 104.392L57.0663 104.278L54.7292 104.278L52.2646 104.278L49.9276 104.278C49.3829 104.395 49.5672 104.195 49.5094 104.977L49.5274 110.599C49.5163 112.311 49.3244 112.369 49.9276 112.441L49.9277 112.441Z" fill="#CDCDCD"/>
<path fill-rule="evenodd" clip-rule="evenodd" d="M33.0953 87.5339L33.0953 85.1982L33.0953 82.7353L33.0953 80.3996L32.9805 79.7675L32.8842 79.735L24.9226 79.8034L24.9269 80.3995L24.9269 82.7351L24.9269 85.1981L24.9269 87.5337C25.0112 88.1789 26.0754 87.9383 26.7697 87.9336L32.3943 87.9512C33.1644 87.8929 32.97 88.082 33.0949 87.5337L33.0953 87.5339Z" fill="#CDCDCD"/>
<path fill-rule="evenodd" clip-rule="evenodd" d="M57.7313 38.6525L57.6628 30.6903L49.5843 30.6239L49.5398 38.8643L57.2499 38.8501C57.2988 38.8412 57.3403 38.8311 57.3848 38.8192L57.7311 38.6525L57.7313 38.6525Z" fill="#CDCDCD"/>
<path fill-rule="evenodd" clip-rule="evenodd" d="M33.0878 6.06481C32.0693 6.26224 25.967 6.26019 24.9344 6.07109L24.926 14.3435L33.0933 14.3435L33.0878 6.06497L33.0878 6.06481Z" fill="#CDCDCD"/>
<path fill-rule="evenodd" clip-rule="evenodd" d="M131.882 112.434C131.693 111.401 131.691 105.303 131.889 104.285L123.607 104.277L123.605 112.439L131.882 112.434L131.882 112.434Z" fill="#CDCDCD"/>
<path fill-rule="evenodd" clip-rule="evenodd" d="M33.0951 135.519L33.0951 133.184L33.1145 128.854L24.9053 128.789L24.921 136.915L33.0968 136.977L33.0951 135.519Z" fill="#CDCDCD"/>
<path fill-rule="evenodd" clip-rule="evenodd" d="M33.0951 37.2129L33.0951 34.7499L33.0951 32.4143L33.0605 30.6865L24.9371 30.7346L24.9269 32.4145L24.9269 34.7501L24.9269 37.2131C24.9423 37.8886 24.7648 38.4843 25.1697 38.8644L33.0123 38.854L33.0951 37.2129Z" fill="#CDCDCD"/>
<path fill-rule="evenodd" clip-rule="evenodd" d="M8.19202 38.8601L8.18401 30.6968L0.0869463 30.7116L0.0102539 38.8578L8.19202 38.8601Z" fill="#CDCDCD"/>
<path fill-rule="evenodd" clip-rule="evenodd" d="M107.089 136.895L107.106 128.803L98.9377 128.795L98.9399 136.972L107.089 136.895Z" fill="#CDCDCD"/>
<path fill-rule="evenodd" clip-rule="evenodd" d="M1.464 112.441L3.80093 112.441L6.23373 112.443L8.11836 112.444L8.18798 104.201L6.23373 104.275L3.80093 104.278L1.464 104.278L0.00463831 104.276L0.0671873 112.443L1.464 112.441Z" fill="#CDCDCD"/>
<path fill-rule="evenodd" clip-rule="evenodd" d="M107.179 87.8734L107.11 79.8036L99.1454 79.7351L98.9336 87.9229L107.179 87.8734Z" fill="#CDCDCD"/>
<path fill-rule="evenodd" clip-rule="evenodd" d="M32.9999 112.358L33.0123 104.361L25.0056 104.361L25.0099 112.346L30.1315 112.347L32.9999 112.358Z" fill="#CDCDCD"/>
</g>
<defs>
<clipPath id="clip0_1632_710">
<rect width="131" height="131" fill="white" transform="translate(0 131) rotate(-90)"/>
</clipPath>
</defs>
</svg>
