<svg width="170" height="142" viewBox="0 0 170 142" fill="none" xmlns="http://www.w3.org/2000/svg">
<g clip-path="url(#clip0_1632_1317)">
<path fill-rule="evenodd" clip-rule="evenodd" d="M137.287 114.536C137.432 113.502 137.635 106.23 137.209 105.876C136.78 105.521 128.078 105.689 126.836 105.811C126.692 106.844 126.489 114.118 126.914 114.47C127.343 114.825 136.046 114.657 137.287 114.536Z" fill="#262626"/>
<path fill-rule="evenodd" clip-rule="evenodd" d="M10.4219 61.7086C10.9571 61.1491 10.6774 53.6024 10.6774 52.8859L0 52.8982L0.112545 61.7092L10.4219 61.7086Z" fill="#262626"/>
<path fill-rule="evenodd" clip-rule="evenodd" d="M158.703 61.7087L169.015 61.71L169.124 52.8982L158.447 52.8867L158.447 59.6519C158.444 60.1678 158.297 61.2845 158.703 61.7087H158.703Z" fill="#262626"/>
<path fill-rule="evenodd" clip-rule="evenodd" d="M63.4634 141.118L74.0163 141.024L74.0226 132.417C73.9802 132.389 73.9155 132.363 73.881 132.352C73.0754 132.09 72.5505 132.204 71.5522 132.207L63.4478 132.203L63.4634 141.118Z" fill="#262626"/>
<path fill-rule="evenodd" clip-rule="evenodd" d="M95.1097 8.82466L95.9207 8.83837L105.688 8.83617V0.680812L105.678 0.00255346L95.0923 0.000183105L95.1097 8.82466Z" fill="#262626"/>
<path fill-rule="evenodd" clip-rule="evenodd" d="M95.106 141.04L105.675 141.025L105.692 140.348L105.689 132.193H104.182L100.884 132.196L97.7797 132.193L95.1086 132.2L95.106 141.04Z" fill="#262626"/>
<path fill-rule="evenodd" clip-rule="evenodd" d="M158.435 8.83617L169.031 8.83482L169.015 0.00255346L158.449 0.000183105L158.435 8.83617Z" fill="#262626"/>
<path fill-rule="evenodd" clip-rule="evenodd" d="M158.435 88.1535L169.015 88.1521L169.018 79.3063L158.449 79.3211L158.435 88.1535Z" fill="#262626"/>
<path fill-rule="evenodd" clip-rule="evenodd" d="M0.109282 141.027L10.6758 141.028L10.6902 132.193L0.0932617 132.195L0.109282 141.027Z" fill="#262626"/>
<path fill-rule="evenodd" clip-rule="evenodd" d="M95.105 61.5825L95.2605 61.7124L105.687 61.7092L105.689 52.8762L95.1072 52.8871L95.105 61.5825Z" fill="#262626"/>
<path fill-rule="evenodd" clip-rule="evenodd" d="M63.436 61.0309L63.4468 61.7092L74.0161 61.71L74.0155 52.8871L66.8017 52.8781L63.436 52.8755V61.0309Z" fill="#262626"/>
<path fill-rule="evenodd" clip-rule="evenodd" d="M74.0198 79.4465L73.6576 79.3224L63.4495 79.3173L63.4351 88.1535L74.016 88.1521L74.0198 79.4465Z" fill="#262626"/>
<path fill-rule="evenodd" clip-rule="evenodd" d="M0.110701 88.142L0.921637 88.1557L10.6281 88.1535L10.6894 79.9981L10.6786 79.3199L0.0932617 79.3175L0.110701 88.142Z" fill="#262626"/>
<path fill-rule="evenodd" clip-rule="evenodd" d="M63.4351 8.83606L74.032 8.8347L74.016 0.00244141H63.4971L63.4351 8.83606Z" fill="#262626"/>
<path fill-rule="evenodd" clip-rule="evenodd" d="M137.43 88.089L137.35 79.3763C134.31 78.9833 129.808 79.6824 126.801 79.2225L126.791 88.1423L137.43 88.089H137.43Z" fill="#262626"/>
<path fill-rule="evenodd" clip-rule="evenodd" d="M169.132 114.565C168.581 112.055 169.418 108.297 168.947 105.758L158.512 105.691L158.448 114.574L169.132 114.565Z" fill="#262626"/>
<path fill-rule="evenodd" clip-rule="evenodd" d="M137.322 141.124L137.329 132.206L126.693 132.253L126.774 140.97C129.814 141.363 134.316 140.664 137.322 141.124L137.322 141.124Z" fill="#262626"/>
<path fill-rule="evenodd" clip-rule="evenodd" d="M105.612 114.656L105.673 105.776L94.9922 105.781C95.543 108.291 94.7057 112.05 95.1763 114.588L105.612 114.655V114.656Z" fill="#262626"/>
<path fill-rule="evenodd" clip-rule="evenodd" d="M31.7928 81.6882V84.3432V86.861L31.7904 88.0377C32.7781 88.2789 41.3472 88.2789 42.3348 88.0377L42.3325 86.861V84.3432V81.6882L42.2668 79.3554L32.0651 79.316C31.4939 79.5874 31.796 81.113 31.7928 81.688V81.6882Z" fill="#262626"/>
<path fill-rule="evenodd" clip-rule="evenodd" d="M158.703 141.026L169.015 141.028L169.022 132.417C168.674 132.189 169.127 132.354 168.572 132.247C168.334 132.202 168.258 132.2 168.011 132.189C167.604 132.17 166.984 132.201 166.551 132.203L158.447 132.203L158.447 138.969C158.445 139.306 158.422 139.689 158.429 140.017L158.703 141.026H158.703Z" fill="#262626"/>
<path fill-rule="evenodd" clip-rule="evenodd" d="M95.104 26.6832L95.1513 35.2009L97.7386 35.2598L101.125 35.2558H104.141L105.56 35.2622C105.814 34.4696 105.816 27.212 105.55 26.454L104.141 26.4558H101.125H97.9452C97.3371 26.4673 95.3198 26.2188 95.1042 26.6832H95.104Z" fill="#262626"/>
<path fill-rule="evenodd" clip-rule="evenodd" d="M95.1025 87.9298C95.4505 88.1568 94.9969 87.9924 95.5517 88.0991L105.677 88.1431L105.663 79.8349C105.651 79.7822 105.639 79.7373 105.624 79.6894L105.498 79.4328C105.485 79.4038 105.454 79.3498 105.421 79.3146L95.109 79.3193L95.1027 87.9298H95.1025Z" fill="#262626"/>
<path fill-rule="evenodd" clip-rule="evenodd" d="M0.518066 8.99177L1.12764 9.15719H1.3361H5.67102H7.53178L11.0872 9.12536L11.0438 0.251953L10.8761 0.337794L0.522933 0.347444L0.518066 8.99177Z" fill="#262626"/>
<path fill-rule="evenodd" clip-rule="evenodd" d="M31.793 107.552V110.208V112.725L31.8062 114.536L42.2881 114.584L42.3327 112.725V110.208V107.552L42.3305 105.906C41.0704 105.564 33.9871 105.776 32.1038 105.768L31.7954 105.906L31.793 107.552Z" fill="#262626"/>
<path fill-rule="evenodd" clip-rule="evenodd" d="M31.7931 53.3059V55.8238V58.4789V60.9967L31.7876 61.6393L42.0607 61.7131L42.185 61.678L42.333 60.9965V58.4787V55.8236V53.3058C42.1819 52.7189 42.4403 52.9175 41.4294 52.8552L34.1713 52.8747C31.9604 52.8627 31.8855 52.656 31.7935 53.3058L31.7931 53.3059Z" fill="#262626"/>
<path fill-rule="evenodd" clip-rule="evenodd" d="M63.9518 35.2557H66.9674H70.1474H73.163L73.9793 35.1321L74.0212 35.0283L73.9328 26.451L73.1632 26.4556H70.1476H66.9676H63.952C63.1189 26.5465 63.4296 27.6929 63.4357 28.441L63.413 34.5006C63.4882 35.3302 63.244 35.1208 63.952 35.2554L63.9518 35.2557Z" fill="#262626"/>
<path fill-rule="evenodd" clip-rule="evenodd" d="M127.064 61.713L137.345 61.6392L137.431 52.936L126.791 52.8881L126.809 61.1944C126.821 61.2471 126.834 61.2918 126.849 61.3397L127.064 61.7129V61.713Z" fill="#262626"/>
<path fill-rule="evenodd" clip-rule="evenodd" d="M169.14 35.2479C168.885 34.1506 168.887 27.5765 169.132 26.4639L158.451 26.455V35.2539L169.139 35.2479H169.14Z" fill="#262626"/>
<path fill-rule="evenodd" clip-rule="evenodd" d="M31.8023 141.124C33.1348 140.92 41.0087 140.918 42.323 141.131L42.3337 132.209L31.7954 132.206L31.8021 141.124H31.8023Z" fill="#262626"/>
<path fill-rule="evenodd" clip-rule="evenodd" d="M1.99565 35.2557H5.01126L10.6018 35.2767L10.6848 26.4326L0.193501 26.4495L0.112793 35.2576L1.99565 35.2557Z" fill="#262626"/>
<path fill-rule="evenodd" clip-rule="evenodd" d="M128.923 35.2557H132.103H135.118L137.349 35.2185L137.287 26.4668L135.118 26.4558H132.103H128.923C128.05 26.4724 127.281 26.2813 126.791 26.7174L126.804 35.1665L128.923 35.2557Z" fill="#262626"/>
<path fill-rule="evenodd" clip-rule="evenodd" d="M126.796 8.82584L137.336 8.8172L137.317 0.0939762L126.799 0.0113525L126.796 8.82584Z" fill="#262626"/>
<path fill-rule="evenodd" clip-rule="evenodd" d="M0.219076 114.558L10.6669 114.577L10.6773 105.777L0.120117 105.779L0.219076 114.558Z" fill="#262626"/>
<path fill-rule="evenodd" clip-rule="evenodd" d="M31.793 1.57729V4.09494L31.7898 6.71587L31.7886 8.74624L42.4323 8.82125L42.336 6.71587L42.3328 4.09494V1.57729L42.3348 0.00506592L31.7906 0.0724516L31.793 1.57729Z" fill="#262626"/>
<path fill-rule="evenodd" clip-rule="evenodd" d="M63.5131 114.656L73.9324 114.581L74.0208 106.001L63.4492 105.772L63.5131 114.656Z" fill="#262626"/>
<path fill-rule="evenodd" clip-rule="evenodd" d="M31.8999 35.1531L42.2257 35.1665V26.5406L31.9157 26.5452L31.9135 32.0629L31.8999 35.1531Z" fill="#262626"/>
</g>
<defs>
<clipPath id="clip0_1632_1317">
<rect width="169.14" height="141.131" fill="white"/>
</clipPath>
</defs>
</svg>
