<svg width="50" height="50" viewBox="0 0 50 50" fill="none" xmlns="http://www.w3.org/2000/svg">
<path d="M34.1087 24.2104C37.3795 24.2104 39.5837 26.4854 39.5837 29.8563C39.5837 32.8896 37.0503 35.4167 33.6191 35.4167C29.8607 35.4167 27.0837 32.3833 27.0837 27.75C27.0837 17.2187 34.7628 13.0062 39.5837 12.5V17.1333C36.3149 17.7229 32.6399 21.0083 32.4753 24.6333C32.6399 24.55 33.292 24.2104 34.1087 24.2104ZM17.4441 24.2104C20.7107 24.2104 22.917 26.4854 22.917 29.8563C22.917 32.8896 20.3837 35.4167 16.9524 35.4167C13.1941 35.4167 10.417 32.3833 10.417 27.75C10.417 17.2187 18.0962 13.0062 22.917 12.5V17.1333C19.6482 17.7229 15.9732 21.0083 15.8087 24.6333C15.9732 24.55 16.6253 24.2104 17.4441 24.2104Z" fill="#FF900D"/>
</svg>
