<svg width="131" height="131" viewBox="0 0 131 131" fill="none" xmlns="http://www.w3.org/2000/svg">
<g clip-path="url(#clip0_1700_689)">
<path fill-rule="evenodd" clip-rule="evenodd" d="M30.7345 23.9317C30.6222 24.8915 30.4648 31.6417 30.7948 31.9697C31.1272 32.3 37.8668 32.1435 38.8285 32.0308C38.9407 31.072 39.0976 24.3194 38.7682 23.993C38.4362 23.6637 31.6957 23.8192 30.7345 23.9317Z" fill="#CDCDCD"/>
<path fill-rule="evenodd" clip-rule="evenodd" d="M128.993 73.2729C128.578 73.7923 128.795 80.7973 128.795 81.4624L137.064 81.4509L136.977 73.2725L128.993 73.2729Z" fill="#CDCDCD"/>
<path fill-rule="evenodd" clip-rule="evenodd" d="M14.148 73.2727L6.16108 73.2715L6.07627 81.4507L14.346 81.4614L14.3463 75.1819C14.3485 74.703 14.4622 73.6664 14.1481 73.2727L14.148 73.2727Z" fill="#CDCDCD"/>
<path fill-rule="evenodd" clip-rule="evenodd" d="M87.9117 -0.876974L79.7384 -0.789756L79.7336 7.19996C79.7664 7.22558 79.8165 7.24931 79.8432 7.25968C80.4672 7.50328 80.8736 7.39767 81.6468 7.39421L87.9238 7.39798L87.9117 -0.876974Z" fill="#CDCDCD"/>
<path fill-rule="evenodd" clip-rule="evenodd" d="M63.4015 122.809L62.7735 122.796L55.2083 122.798L55.2083 130.368L55.2166 130.998L63.415 131L63.4015 122.809Z" fill="#CDCDCD"/>
<path fill-rule="evenodd" clip-rule="evenodd" d="M63.4043 -0.804475L55.2184 -0.790954L55.2057 -0.162479L55.2079 7.40747L56.375 7.40747L58.9291 7.40495L61.3335 7.40747L63.4023 7.40134L63.4043 -0.804475Z" fill="#CDCDCD"/>
<path fill-rule="evenodd" clip-rule="evenodd" d="M14.3555 122.798L6.14807 122.8L6.16048 130.998L14.3443 131L14.3555 122.798Z" fill="#CDCDCD"/>
<path fill-rule="evenodd" clip-rule="evenodd" d="M14.3555 48.6038L6.16064 48.6051L6.15844 56.8159L14.3443 56.8022L14.3555 48.6038Z" fill="#CDCDCD"/>
<path fill-rule="evenodd" clip-rule="evenodd" d="M136.98 -0.791905L128.796 -0.792995L128.785 7.40747L136.992 7.40543L136.98 -0.791905Z" fill="#CDCDCD"/>
<path fill-rule="evenodd" clip-rule="evenodd" d="M63.4053 73.3898L63.2848 73.2693L55.2092 73.2723L55.2081 81.4712L63.4035 81.4611L63.4053 73.3898Z" fill="#CDCDCD"/>
<path fill-rule="evenodd" clip-rule="evenodd" d="M87.9326 73.902L87.9243 73.2724L79.7383 73.2716L79.7387 81.4612L85.3259 81.4696L87.9326 81.4719L87.9326 73.902Z" fill="#CDCDCD"/>
<path fill-rule="evenodd" clip-rule="evenodd" d="M79.7356 56.6858L80.0161 56.801L87.9224 56.8057L87.9336 48.6038L79.7386 48.605L79.7356 56.6858Z" fill="#CDCDCD"/>
<path fill-rule="evenodd" clip-rule="evenodd" d="M136.979 48.6146L136.351 48.6019L128.833 48.6039L128.785 56.1739L128.794 56.8035L136.992 56.8057L136.979 48.6146Z" fill="#CDCDCD"/>
<path fill-rule="evenodd" clip-rule="evenodd" d="M87.9336 122.798L79.7262 122.8L79.7386 130.998L87.8855 130.998L87.9336 122.798Z" fill="#CDCDCD"/>
<path fill-rule="evenodd" clip-rule="evenodd" d="M30.6237 48.6638L30.6856 56.7511C33.0407 57.1159 36.5274 56.467 38.8559 56.8938L38.8643 48.6143L30.6239 48.6638L30.6237 48.6638Z" fill="#CDCDCD"/>
<path fill-rule="evenodd" clip-rule="evenodd" d="M6.07042 23.9046C6.49699 26.2346 5.8485 29.7234 6.21303 32.0796L14.2953 32.1418L14.3447 23.8963L6.07042 23.9046Z" fill="#CDCDCD"/>
<path fill-rule="evenodd" clip-rule="evenodd" d="M30.7072 -0.882377L30.7021 7.39526L38.9395 7.35142L38.8773 -0.739508C36.5225 -1.10427 33.0359 -0.455369 30.7074 -0.882209L30.7072 -0.882377Z" fill="#CDCDCD"/>
<path fill-rule="evenodd" clip-rule="evenodd" d="M55.2674 23.8209L55.2198 32.0635L63.4922 32.0583C63.0656 29.7283 63.7141 26.2395 63.3496 23.8833L55.2674 23.821L55.2674 23.8209Z" fill="#CDCDCD"/>
<path fill-rule="evenodd" clip-rule="evenodd" d="M112.44 54.6049L112.44 52.1406L112.44 49.8035L112.442 48.7112C111.677 48.4873 105.04 48.4873 104.276 48.7112L104.277 49.8035L104.277 52.1406L104.277 54.6049L104.328 56.7703L112.229 56.8069C112.672 56.555 112.438 55.1388 112.44 54.6051L112.44 54.6049Z" fill="#CDCDCD"/>
<path fill-rule="evenodd" clip-rule="evenodd" d="M14.148 -0.791492L6.16116 -0.792751L6.1563 7.20011C6.42581 7.41086 6.07446 7.25826 6.50417 7.35727C6.68856 7.3997 6.74746 7.40111 6.93875 7.41164C7.25413 7.42909 7.73409 7.40033 8.06973 7.39829L14.3461 7.39798L14.3464 1.11765C14.3478 0.804904 14.3659 0.449259 14.3602 0.14516L14.1482 -0.791492L14.148 -0.791492Z" fill="#CDCDCD"/>
<path fill-rule="evenodd" clip-rule="evenodd" d="M63.4053 105.862L63.3687 97.9557L61.3648 97.901L58.7419 97.9048L56.4063 97.9048L55.3072 97.8988C55.1106 98.6345 55.109 105.371 55.3147 106.075L56.4063 106.073L58.7419 106.073L61.2047 106.073C61.6757 106.062 63.2382 106.293 63.4051 105.862L63.4053 105.862Z" fill="#CDCDCD"/>
<path fill-rule="evenodd" clip-rule="evenodd" d="M63.4072 48.8113C63.1377 48.6006 63.489 48.7532 63.0593 48.6541L55.2174 48.6133L55.2283 56.3252C55.237 56.374 55.2468 56.4157 55.2583 56.4602L55.3556 56.6984C55.3661 56.7253 55.3897 56.7754 55.4153 56.8081L63.4022 56.8037L63.4071 48.8113L63.4072 48.8113Z" fill="#CDCDCD"/>
<path fill-rule="evenodd" clip-rule="evenodd" d="M136.663 122.654L136.191 122.5L136.03 122.5L132.672 122.5L131.231 122.5L128.477 122.53L128.511 130.766L128.641 130.687L136.659 130.678L136.663 122.654Z" fill="#CDCDCD"/>
<path fill-rule="evenodd" clip-rule="evenodd" d="M112.44 30.4142L112.44 27.9496L112.44 25.6125L112.43 23.9316L104.312 23.887L104.277 25.6125L104.277 27.9496L104.277 30.4142L104.279 31.9427C105.255 32.2598 110.741 32.0629 112.2 32.0706L112.439 31.9427L112.44 30.4142Z" fill="#CDCDCD"/>
<path fill-rule="evenodd" clip-rule="evenodd" d="M112.44 81.0723L112.44 78.7352L112.44 76.2707L112.44 73.9336L112.444 73.3372L104.488 73.2686L104.391 73.3012L104.277 73.9337L104.277 76.2708L104.277 78.7354L104.277 81.0724C104.394 81.6171 104.194 81.4328 104.977 81.4906L110.598 81.4726C112.311 81.4837 112.368 81.6756 112.44 81.0724L112.44 81.0723Z" fill="#CDCDCD"/>
<path fill-rule="evenodd" clip-rule="evenodd" d="M87.533 97.9047L85.1974 97.9047L82.7344 97.9047L80.3988 97.9047L79.7666 98.0195L79.7341 98.1158L79.8026 106.077L80.3986 106.073L82.7342 106.073L85.1972 106.073L87.5328 106.073C88.178 105.989 87.9374 104.925 87.9327 104.23L87.9503 98.6057C87.892 97.8356 88.0811 98.03 87.5329 97.9051L87.533 97.9047Z" fill="#CDCDCD"/>
<path fill-rule="evenodd" clip-rule="evenodd" d="M38.6525 73.2687L30.6903 73.3372L30.6239 81.4157L38.8643 81.4602L38.8501 73.7501C38.8412 73.7012 38.8311 73.6597 38.8192 73.6152L38.6525 73.2689L38.6525 73.2687Z" fill="#CDCDCD"/>
<path fill-rule="evenodd" clip-rule="evenodd" d="M6.06408 97.9122C6.26151 98.9307 6.25945 105.033 6.07036 106.066L14.3428 106.074L14.3428 97.9067L6.06424 97.9122L6.06408 97.9122Z" fill="#CDCDCD"/>
<path fill-rule="evenodd" clip-rule="evenodd" d="M112.433 -0.882376C111.401 -0.693158 105.303 -0.691106 104.285 -0.888654L104.276 7.39291L112.438 7.39526L112.433 -0.882376L112.433 -0.882376Z" fill="#CDCDCD"/>
<path fill-rule="evenodd" clip-rule="evenodd" d="M135.519 97.9049L133.184 97.9049L128.854 97.8855L128.789 106.095L136.915 106.079L136.978 97.9032L135.519 97.9049Z" fill="#CDCDCD"/>
<path fill-rule="evenodd" clip-rule="evenodd" d="M37.2128 97.9049L34.7498 97.9049L32.4142 97.9049L30.6864 97.9395L30.7344 106.063L32.4143 106.073L34.75 106.073L37.2129 106.073C37.8885 106.058 38.4842 106.235 38.8643 105.83L38.8539 97.9877L37.2128 97.9049Z" fill="#CDCDCD"/>
<path fill-rule="evenodd" clip-rule="evenodd" d="M38.8594 122.808L30.6961 122.816L30.7109 130.913L38.857 130.99L38.8594 122.808Z" fill="#CDCDCD"/>
<path fill-rule="evenodd" clip-rule="evenodd" d="M136.895 23.911L128.803 23.8938L128.795 32.0623L136.972 32.0601L136.895 23.911Z" fill="#CDCDCD"/>
<path fill-rule="evenodd" clip-rule="evenodd" d="M112.441 129.536L112.441 127.199L112.443 124.766L112.444 122.882L104.201 122.812L104.275 124.766L104.278 127.199L104.278 129.536L104.276 130.995L112.443 130.933L112.441 129.536Z" fill="#CDCDCD"/>
<path fill-rule="evenodd" clip-rule="evenodd" d="M87.8734 23.8208L79.8036 23.89L79.7351 31.8546L87.9229 32.0664L87.8734 23.8208Z" fill="#CDCDCD"/>
<path fill-rule="evenodd" clip-rule="evenodd" d="M112.357 98.0001L104.36 97.9877L104.36 105.994L112.345 105.99L112.347 100.869L112.357 98.0001Z" fill="#CDCDCD"/>
</g>
<defs>
<clipPath id="clip0_1700_689">
<rect width="131" height="131" fill="white" transform="translate(131 131) rotate(-180)"/>
</clipPath>
</defs>
</svg>
