<svg width="131" height="131" viewBox="0 0 131 131" fill="none" xmlns="http://www.w3.org/2000/svg">
<g clip-path="url(#clip0_1700_235)">
<path fill-rule="evenodd" clip-rule="evenodd" d="M100.265 107.068C100.377 106.109 100.535 99.3583 100.205 99.0303C99.8724 98.7 93.1327 98.8565 92.171 98.9692C92.0589 99.928 91.902 106.681 92.2313 107.007C92.5633 107.336 99.3038 107.181 100.265 107.068Z" fill="#CDCDCD"/>
<path fill-rule="evenodd" clip-rule="evenodd" d="M2.00691 57.7273C2.42139 57.2079 2.20481 50.2029 2.20481 49.5378L-6.06494 49.5493L-5.97777 57.7278L2.00691 57.7273Z" fill="#CDCDCD"/>
<path fill-rule="evenodd" clip-rule="evenodd" d="M116.852 57.7273L124.838 57.7286L124.923 49.5493L116.653 49.5386L116.653 55.8182C116.651 56.297 116.537 57.3336 116.851 57.7273H116.852Z" fill="#CDCDCD"/>
<path fill-rule="evenodd" clip-rule="evenodd" d="M43.0878 131.877L51.2611 131.79L51.266 123.8C51.2331 123.774 51.183 123.751 51.1563 123.74C50.5323 123.497 50.1259 123.602 49.3527 123.606L43.0757 123.602L43.0878 131.877Z" fill="#CDCDCD"/>
<path fill-rule="evenodd" clip-rule="evenodd" d="M67.5985 8.19116L68.2265 8.20389L75.7917 8.20185V0.631894L75.7834 0.00232227L67.585 0.00012207L67.5985 8.19116Z" fill="#CDCDCD"/>
<path fill-rule="evenodd" clip-rule="evenodd" d="M67.5952 131.805L75.7811 131.791L75.7938 131.163L75.7916 123.593H74.6245L72.0704 123.595L69.666 123.593L67.5973 123.599L67.5952 131.805Z" fill="#CDCDCD"/>
<path fill-rule="evenodd" clip-rule="evenodd" d="M116.644 8.20185L124.851 8.20059L124.839 0.00232227L116.655 0.00012207L116.644 8.20185Z" fill="#CDCDCD"/>
<path fill-rule="evenodd" clip-rule="evenodd" d="M116.644 82.3963L124.839 82.395L124.841 74.1842L116.655 74.1979L116.644 82.3963Z" fill="#CDCDCD"/>
<path fill-rule="evenodd" clip-rule="evenodd" d="M-5.98027 131.792L2.20357 131.793L2.21472 123.593L-5.99268 123.595L-5.98027 131.792Z" fill="#CDCDCD"/>
<path fill-rule="evenodd" clip-rule="evenodd" d="M67.5942 57.6102L67.7147 57.7308L75.7903 57.7278L75.7914 49.5289L67.596 49.5389L67.5942 57.6102Z" fill="#CDCDCD"/>
<path fill-rule="evenodd" clip-rule="evenodd" d="M43.0669 57.0982L43.0752 57.7278L51.2613 57.7286L51.2608 49.5389L45.6736 49.5306L43.0669 49.5283V57.0982Z" fill="#CDCDCD"/>
<path fill-rule="evenodd" clip-rule="evenodd" d="M51.2644 74.3143L50.9839 74.1991L43.0776 74.1944L43.0664 82.3963L51.2614 82.395L51.2644 74.3143Z" fill="#CDCDCD"/>
<path fill-rule="evenodd" clip-rule="evenodd" d="M-5.97917 82.3856L-5.35109 82.3983L2.16666 82.3963L2.21409 74.8263L2.20577 74.1968L-5.99268 74.1946L-5.97917 82.3856Z" fill="#CDCDCD"/>
<path fill-rule="evenodd" clip-rule="evenodd" d="M43.0664 8.20185L51.2738 8.20059L51.2614 0.00231934L43.1145 0.00231934L43.0664 8.20185Z" fill="#CDCDCD"/>
<path fill-rule="evenodd" clip-rule="evenodd" d="M100.376 82.3364L100.314 74.2491C97.9588 73.8843 94.4721 74.5332 92.1436 74.1064L92.1353 82.3859L100.376 82.3364H100.376Z" fill="#CDCDCD"/>
<path fill-rule="evenodd" clip-rule="evenodd" d="M124.929 107.096C124.502 104.766 125.151 101.277 124.786 98.9205L116.704 98.8583L116.654 107.104L124.929 107.096Z" fill="#CDCDCD"/>
<path fill-rule="evenodd" clip-rule="evenodd" d="M100.292 131.882L100.297 123.605L92.0601 123.649L92.1223 131.74C94.477 132.104 97.9636 131.455 100.292 131.882L100.292 131.882Z" fill="#CDCDCD"/>
<path fill-rule="evenodd" clip-rule="evenodd" d="M75.7322 107.179L75.7797 98.9366L67.5073 98.9418C67.9339 101.272 67.2854 104.761 67.6499 107.117L75.7322 107.179V107.179Z" fill="#CDCDCD"/>
<path fill-rule="evenodd" clip-rule="evenodd" d="M18.5591 76.3951V78.8594V81.1965L18.5572 82.2888C19.3223 82.5127 25.9591 82.5127 26.724 82.2888L26.7222 81.1965V78.8594V76.3951L26.6714 74.2297L18.7701 74.1931C18.3276 74.445 18.5616 75.8612 18.5591 76.3949V76.3951Z" fill="#CDCDCD"/>
<path fill-rule="evenodd" clip-rule="evenodd" d="M116.851 131.792L124.838 131.793L124.843 123.8C124.574 123.589 124.925 123.742 124.495 123.643C124.311 123.601 124.252 123.599 124.061 123.589C123.745 123.571 123.265 123.6 122.93 123.602L116.653 123.602L116.653 129.883C116.652 130.195 116.634 130.551 116.639 130.855L116.851 131.792H116.851Z" fill="#CDCDCD"/>
<path fill-rule="evenodd" clip-rule="evenodd" d="M67.5938 25.1381L67.6303 33.0444L69.6343 33.099L72.2571 33.0953H74.5927L75.6918 33.1012C75.8885 32.3656 75.89 25.6289 75.6843 24.9253L74.5927 24.927H72.2571H69.7943C69.3233 24.9377 67.7609 24.707 67.5939 25.1381H67.5938Z" fill="#CDCDCD"/>
<path fill-rule="evenodd" clip-rule="evenodd" d="M67.5928 82.1887C67.8623 82.3994 67.511 82.2468 67.9407 82.3459L75.7826 82.3867L75.7717 74.6748C75.763 74.626 75.7532 74.5843 75.7417 74.5398L75.6444 74.3016C75.6339 74.2747 75.6103 74.2246 75.5847 74.1919L67.5978 74.1963L67.5929 82.1887H67.5928Z" fill="#CDCDCD"/>
<path fill-rule="evenodd" clip-rule="evenodd" d="M-5.66357 8.34629L-5.19146 8.49983H-5.03H-1.67257H-0.231398L2.52231 8.47028L2.4887 0.233826L2.35881 0.313504L-5.6598 0.322462L-5.66357 8.34629Z" fill="#CDCDCD"/>
<path fill-rule="evenodd" clip-rule="evenodd" d="M18.5591 100.586V103.051V105.388L18.5693 107.069L26.6876 107.113L26.7222 105.388V103.051V100.586L26.7205 99.0576C25.7445 98.7404 20.2585 98.9373 18.7999 98.9296L18.561 99.0576L18.5591 100.586Z" fill="#CDCDCD"/>
<path fill-rule="evenodd" clip-rule="evenodd" d="M18.5589 49.9277V52.2648V54.7293V57.0664L18.5547 57.6628L26.5113 57.7314L26.6075 57.6988L26.7222 57.0663V54.7292V52.2646V49.9276C26.6052 49.3829 26.8053 49.5672 26.0223 49.5094L20.4009 49.5274C18.6885 49.5163 18.6305 49.3244 18.5592 49.9276L18.5589 49.9277Z" fill="#CDCDCD"/>
<path fill-rule="evenodd" clip-rule="evenodd" d="M43.466 33.0953H45.8016H48.2646H50.6002L51.2324 32.9806L51.2649 32.8843L51.1964 24.9227L50.6004 24.9269H48.2648H45.8018H43.4662C42.821 25.0113 43.0616 26.0754 43.0663 26.7697L43.0487 32.3944C43.107 33.1645 42.9179 32.9701 43.4662 33.095L43.466 33.0953Z" fill="#CDCDCD"/>
<path fill-rule="evenodd" clip-rule="evenodd" d="M92.3475 57.7314L100.31 57.6628L100.376 49.5843L92.1357 49.5399L92.1499 57.25C92.1588 57.2989 92.1689 57.3404 92.1808 57.3848L92.3475 57.7312V57.7314Z" fill="#CDCDCD"/>
<path fill-rule="evenodd" clip-rule="evenodd" d="M124.935 33.0881C124.738 32.0695 124.74 25.9673 124.929 24.9346L116.656 24.9263V33.0936L124.935 33.0881H124.935Z" fill="#CDCDCD"/>
<path fill-rule="evenodd" clip-rule="evenodd" d="M18.5664 131.882C19.5984 131.693 25.6968 131.691 26.7147 131.889L26.723 123.607L18.561 123.605L18.5662 131.882H18.5664Z" fill="#CDCDCD"/>
<path fill-rule="evenodd" clip-rule="evenodd" d="M-4.51925 33.0953H-2.18364L2.1463 33.1148L2.21054 24.9055L-5.91503 24.9212L-5.97754 33.097L-4.51925 33.0953Z" fill="#CDCDCD"/>
<path fill-rule="evenodd" clip-rule="evenodd" d="M93.7867 33.0953H96.2497H98.5853L100.313 33.0607L100.265 24.9372L98.5852 24.927H96.2496H93.7866C93.1111 24.9424 92.5153 24.765 92.1353 25.1698L92.1456 33.0125L93.7867 33.0953Z" fill="#CDCDCD"/>
<path fill-rule="evenodd" clip-rule="evenodd" d="M92.1396 8.19227L100.303 8.18425L100.288 0.0871908L92.142 0.010498L92.1396 8.19227Z" fill="#CDCDCD"/>
<path fill-rule="evenodd" clip-rule="evenodd" d="M-5.89504 107.089L2.19693 107.106L2.20494 98.9379L-5.97168 98.9401L-5.89504 107.089Z" fill="#CDCDCD"/>
<path fill-rule="evenodd" clip-rule="evenodd" d="M18.5591 1.46406V3.80099L18.5566 6.23379L18.5557 8.11842L26.7993 8.18804L26.7247 6.23379L26.7222 3.80099V1.46406L26.7238 0.00469971L18.5572 0.0672483L18.5591 1.46406Z" fill="#CDCDCD"/>
<path fill-rule="evenodd" clip-rule="evenodd" d="M43.1266 107.179L51.1964 107.11L51.2649 99.1455L43.0771 98.9337L43.1266 107.179Z" fill="#CDCDCD"/>
<path fill-rule="evenodd" clip-rule="evenodd" d="M18.6421 33.0001L26.6395 33.0125V25.0058L18.6543 25.01L18.6526 30.1316L18.6421 33.0001Z" fill="#CDCDCD"/>
</g>
<defs>
<clipPath id="clip0_1700_235">
<rect width="131" height="131" fill="white"/>
</clipPath>
</defs>
</svg>
