<svg width="118" height="131" viewBox="0 0 118 131" fill="none" xmlns="http://www.w3.org/2000/svg">
<g clip-path="url(#clip0_1521_479)">
<path fill-rule="evenodd" clip-rule="evenodd" d="M87.2651 107.068C87.3774 106.109 87.5348 99.3583 87.2048 99.0303C86.8725 98.7 80.1328 98.8565 79.1711 98.9692C79.059 99.928 78.9021 106.681 79.2314 107.007C79.5634 107.336 86.3039 107.181 87.2651 107.068Z" fill="#CEC0C0"/>
<path fill-rule="evenodd" clip-rule="evenodd" d="M103.852 57.7273L111.839 57.7286L111.923 49.5493L103.654 49.5386L103.653 55.8182C103.651 56.297 103.538 57.3336 103.852 57.7273H103.852Z" fill="#CEC0C0"/>
<path fill-rule="evenodd" clip-rule="evenodd" d="M30.088 131.877L38.2613 131.79L38.2662 123.8C38.2334 123.774 38.1833 123.751 38.1566 123.74C37.5326 123.497 37.1261 123.602 36.3529 123.606L30.0759 123.602L30.088 131.877Z" fill="#CEC0C0"/>
<path fill-rule="evenodd" clip-rule="evenodd" d="M54.5985 8.19116L55.2265 8.20389L62.7917 8.20185V0.631894L62.7834 0.00232227L54.585 0.00012207L54.5985 8.19116Z" fill="#CEC0C0"/>
<path fill-rule="evenodd" clip-rule="evenodd" d="M54.5955 131.805L62.7813 131.791L62.7941 131.163L62.7919 123.593H61.6248L59.0707 123.595L56.6663 123.593L54.5975 123.599L54.5955 131.805Z" fill="#CEC0C0"/>
<path fill-rule="evenodd" clip-rule="evenodd" d="M103.644 8.20185L111.851 8.20059L111.839 0.00232227L103.655 0.00012207L103.644 8.20185Z" fill="#CEC0C0"/>
<path fill-rule="evenodd" clip-rule="evenodd" d="M103.644 82.3963L111.839 82.395L111.841 74.1842L103.655 74.1979L103.644 82.3963Z" fill="#CEC0C0"/>
<path fill-rule="evenodd" clip-rule="evenodd" d="M54.5946 57.6102L54.7151 57.7308L62.7907 57.7278L62.7918 49.5289L54.5963 49.5389L54.5946 57.6102Z" fill="#CEC0C0"/>
<path fill-rule="evenodd" clip-rule="evenodd" d="M30.067 57.0982L30.0753 57.7278L38.2614 57.7286L38.2609 49.5389L32.6737 49.5306L30.067 49.5283V57.0982Z" fill="#CEC0C0"/>
<path fill-rule="evenodd" clip-rule="evenodd" d="M38.2644 74.3143L37.9839 74.1991L30.0776 74.1944L30.0664 82.3963L38.2614 82.395L38.2644 74.3143Z" fill="#CEC0C0"/>
<path fill-rule="evenodd" clip-rule="evenodd" d="M30.0663 8.20185L38.2737 8.20059L38.2613 0.00231934H30.1143L30.0663 8.20185Z" fill="#CEC0C0"/>
<path fill-rule="evenodd" clip-rule="evenodd" d="M87.3762 82.3364L87.3143 74.2491C84.9592 73.8843 81.4725 74.5332 79.1439 74.1064L79.1356 82.3859L87.376 82.3364H87.3762Z" fill="#CEC0C0"/>
<path fill-rule="evenodd" clip-rule="evenodd" d="M111.929 107.096C111.502 104.766 112.151 101.277 111.786 98.9205L103.704 98.8583L103.655 107.104L111.929 107.096Z" fill="#CEC0C0"/>
<path fill-rule="evenodd" clip-rule="evenodd" d="M87.2923 131.882L87.2975 123.605L79.0601 123.649L79.1223 131.74C81.477 132.104 84.9636 131.455 87.2921 131.882L87.2923 131.882Z" fill="#CEC0C0"/>
<path fill-rule="evenodd" clip-rule="evenodd" d="M62.732 107.179L62.7796 98.9366L54.5072 98.9418C54.9338 101.272 54.2853 104.761 54.6498 107.117L62.732 107.179V107.179Z" fill="#CEC0C0"/>
<path fill-rule="evenodd" clip-rule="evenodd" d="M5.55913 76.3951V78.8594V81.1965L5.55724 82.2888C6.32227 82.5127 12.9591 82.5127 13.724 82.2888L13.7222 81.1965V78.8594V76.3951L13.6714 74.2297L5.77006 74.1931C5.32763 74.445 5.56164 75.8612 5.55913 76.3949V76.3951Z" fill="#CEC0C0"/>
<path fill-rule="evenodd" clip-rule="evenodd" d="M103.852 131.792L111.839 131.793L111.844 123.8C111.574 123.589 111.925 123.742 111.496 123.643C111.311 123.601 111.252 123.599 111.061 123.589C110.746 123.571 110.266 123.6 109.93 123.602L103.654 123.602L103.653 129.883C103.652 130.195 103.634 130.551 103.64 130.855L103.852 131.792H103.852Z" fill="#CEC0C0"/>
<path fill-rule="evenodd" clip-rule="evenodd" d="M54.594 25.1381L54.6306 33.0444L56.6345 33.099L59.2574 33.0953H61.593L62.6921 33.1012C62.8887 32.3656 62.8903 25.6289 62.6845 24.9253L61.593 24.927H59.2574H56.7945C56.3235 24.9377 54.7611 24.707 54.5942 25.1381H54.594Z" fill="#CEC0C0"/>
<path fill-rule="evenodd" clip-rule="evenodd" d="M54.5927 82.1887C54.8622 82.3994 54.5108 82.2468 54.9405 82.3459L62.7825 82.3867L62.7716 74.6748C62.7628 74.626 62.7531 74.5843 62.7416 74.5398L62.6443 74.3016C62.6337 74.2747 62.6102 74.2246 62.5846 74.1919L54.5977 74.1963L54.5928 82.1887H54.5927Z" fill="#CEC0C0"/>
<path fill-rule="evenodd" clip-rule="evenodd" d="M5.5592 100.586V103.051V105.388L5.56941 107.069L13.6878 107.113L13.7223 105.388V103.051V100.586L13.7206 99.0576C12.7446 98.7404 7.25858 98.9373 5.79998 98.9296L5.56109 99.0576L5.5592 100.586Z" fill="#CEC0C0"/>
<path fill-rule="evenodd" clip-rule="evenodd" d="M5.55905 49.9277V52.2648V54.7293V57.0664L5.55481 57.6628L13.5114 57.7314L13.6077 57.6988L13.7223 57.0663V54.7292V52.2646V49.9276C13.6053 49.3829 13.8054 49.5672 13.0225 49.5094L7.40103 49.5274C5.68862 49.5163 5.63067 49.3244 5.55936 49.9276L5.55905 49.9277Z" fill="#CEC0C0"/>
<path fill-rule="evenodd" clip-rule="evenodd" d="M30.4661 33.0953H32.8018H35.2647H37.6004L38.2325 32.9806L38.265 32.8843L38.1966 24.9227L37.6005 24.9269H35.2649H32.8019H30.4663C29.8211 25.0113 30.0617 26.0754 30.0664 26.7697L30.0488 32.3944C30.1071 33.1645 29.918 32.9701 30.4663 33.095L30.4661 33.0953Z" fill="#CEC0C0"/>
<path fill-rule="evenodd" clip-rule="evenodd" d="M79.3475 57.7314L87.3097 57.6628L87.3761 49.5843L79.1357 49.5399L79.1499 57.25C79.1588 57.2989 79.1689 57.3404 79.1808 57.3848L79.3475 57.7312V57.7314Z" fill="#CEC0C0"/>
<path fill-rule="evenodd" clip-rule="evenodd" d="M111.935 33.0881C111.738 32.0695 111.74 25.9673 111.929 24.9346L103.656 24.9263V33.0936L111.935 33.0881H111.935Z" fill="#CEC0C0"/>
<path fill-rule="evenodd" clip-rule="evenodd" d="M5.5665 131.882C6.59853 131.693 12.6969 131.691 13.7148 131.889L13.7232 123.607L5.56116 123.605L5.56634 131.882H5.5665Z" fill="#CEC0C0"/>
<path fill-rule="evenodd" clip-rule="evenodd" d="M80.7871 33.0953H83.2501H85.5857L87.3135 33.0607L87.2654 24.9372L85.5855 24.927H83.2499H80.7869C80.1114 24.9424 79.5157 24.765 79.1356 25.1698L79.146 33.0125L80.7871 33.0953Z" fill="#CEC0C0"/>
<path fill-rule="evenodd" clip-rule="evenodd" d="M79.1399 8.19227L87.3032 8.18425L87.2884 0.0871908L79.1422 0.010498L79.1399 8.19227Z" fill="#CEC0C0"/>
<path fill-rule="evenodd" clip-rule="evenodd" d="M5.55912 1.46406V3.80099L5.55661 6.23379L5.55566 8.11842L13.7993 8.18804L13.7247 6.23379L13.7222 3.80099V1.46406L13.7238 0.00469971L5.55723 0.0672483L5.55912 1.46406Z" fill="#CEC0C0"/>
<path fill-rule="evenodd" clip-rule="evenodd" d="M30.1266 107.179L38.1964 107.11L38.2649 99.1455L30.0771 98.9337L30.1266 107.179Z" fill="#CEC0C0"/>
<path fill-rule="evenodd" clip-rule="evenodd" d="M5.64197 33.0001L13.6394 33.0125V25.0058L5.65422 25.01L5.65249 30.1316L5.64197 33.0001Z" fill="#CEC0C0"/>
</g>
<defs>
<clipPath id="clip0_1521_479">
<rect width="131" height="131" fill="white" transform="translate(-13)"/>
</clipPath>
</defs>
</svg>
