<svg width="18" height="18" viewBox="0 0 18 18" fill="none" xmlns="http://www.w3.org/2000/svg">
<g clip-path="url(#clip0_1512_752)">
<path d="M8.25583 10.5537C8.96388 11.6402 9.90122 12.5585 11.002 13.2441L12.874 12.2896C12.9284 12.2665 12.9887 12.2604 13.0467 12.2722C13.1047 12.284 13.1577 12.3131 13.1988 12.3557L15.7984 14.8917C15.8981 14.983 15.9751 15.0963 16.0235 15.2226C16.0719 15.3489 16.0902 15.4847 16.0771 15.6193C16.0639 15.7539 16.0197 15.8836 15.9478 15.9982C15.876 16.1127 15.7784 16.209 15.663 16.2794L13.9796 17.379C13.7385 17.5365 13.4621 17.6319 13.1752 17.6566C12.8883 17.6813 12.5997 17.6346 12.3352 17.5207C9.69532 16.3911 7.42651 14.5416 5.78806 12.1836C4.19867 9.81537 3.33065 7.03685 3.28928 4.18506C3.28564 3.90111 3.35542 3.62103 3.49185 3.37197C3.62828 3.12291 3.82673 2.91332 4.06797 2.7635L5.80616 1.65727C5.91488 1.58315 6.03895 1.53459 6.16909 1.51522C6.29923 1.49585 6.43206 1.50618 6.55765 1.54542C6.68323 1.58466 6.79831 1.65181 6.89427 1.74183C6.99023 1.83185 7.06458 1.94241 7.11175 2.06524L8.50265 5.42346C8.52757 5.47682 8.53468 5.53678 8.52295 5.59449C8.51121 5.6522 8.48124 5.70461 8.43746 5.74399L6.80466 7.05414C7.02267 8.31389 7.51838 9.50932 8.25583 10.5537Z" fill="#FF900D"/>
</g>
<defs>
<clipPath id="clip0_1512_752">
<rect width="18" height="18" fill="white"/>
</clipPath>
</defs>
</svg>
