<svg width="170" height="107" viewBox="0 0 170 107" fill="none" xmlns="http://www.w3.org/2000/svg">
<g clip-path="url(#clip0_1530_430)">
<path fill-rule="evenodd" clip-rule="evenodd" d="M137.287 79.5359C137.432 78.502 137.635 71.2297 137.209 70.8764C136.78 70.5205 128.078 70.6891 126.836 70.8105C126.692 71.8435 126.489 79.1183 126.914 79.4699C127.343 79.8246 136.046 79.6572 137.287 79.5359Z" fill="#CEC0C0"/>
<path fill-rule="evenodd" clip-rule="evenodd" d="M10.4219 26.7086C10.9571 26.1491 10.6774 18.6024 10.6774 17.8859L0 17.8982L0.112545 26.7092L10.4219 26.7086Z" fill="#CEC0C0"/>
<path fill-rule="evenodd" clip-rule="evenodd" d="M158.703 26.7087L169.015 26.71L169.124 17.8982L158.447 17.8867L158.447 24.6519C158.444 25.1678 158.297 26.2845 158.703 26.7087H158.703Z" fill="#CEC0C0"/>
<path fill-rule="evenodd" clip-rule="evenodd" d="M63.4634 106.118L74.0163 106.024L74.0226 97.4165C73.9802 97.3889 73.9155 97.3634 73.881 97.3522C73.0754 97.0898 72.5505 97.2035 71.5522 97.2073L63.4478 97.2032L63.4634 106.118Z" fill="#CEC0C0"/>
<path fill-rule="evenodd" clip-rule="evenodd" d="M95.1057 106.04L105.675 106.025L105.691 105.348L105.688 97.193H104.182L100.884 97.1957L97.7794 97.193L95.1083 97.1996L95.1057 106.04Z" fill="#CEC0C0"/>
<path fill-rule="evenodd" clip-rule="evenodd" d="M158.434 53.1534L169.015 53.1521L169.018 44.3063L158.449 44.321L158.434 53.1534Z" fill="#CEC0C0"/>
<path fill-rule="evenodd" clip-rule="evenodd" d="M0.109526 106.026L10.676 106.028L10.6904 97.193L0.0935059 97.1952L0.109526 106.026Z" fill="#CEC0C0"/>
<path fill-rule="evenodd" clip-rule="evenodd" d="M95.1047 26.5825L95.2603 26.7124L105.687 26.7092L105.688 17.8762L95.107 17.8871L95.1047 26.5825Z" fill="#CEC0C0"/>
<path fill-rule="evenodd" clip-rule="evenodd" d="M63.436 26.0309L63.4468 26.7091L74.0161 26.71L74.0155 17.887L66.8017 17.8781L63.436 17.8755V26.0309Z" fill="#CEC0C0"/>
<path fill-rule="evenodd" clip-rule="evenodd" d="M74.0201 44.4465L73.6579 44.3224L63.4497 44.3173L63.4353 53.1535L74.0162 53.1521L74.0201 44.4465Z" fill="#CEC0C0"/>
<path fill-rule="evenodd" clip-rule="evenodd" d="M0.110945 53.1419L0.921881 53.1557L10.6284 53.1535L10.6896 44.9981L10.6789 44.3198L0.0935059 44.3175L0.110945 53.1419Z" fill="#CEC0C0"/>
<path fill-rule="evenodd" clip-rule="evenodd" d="M137.43 53.0889L137.351 44.3762C134.31 43.9832 129.808 44.6823 126.802 44.2225L126.791 53.1423L137.43 53.0889H137.43Z" fill="#CEC0C0"/>
<path fill-rule="evenodd" clip-rule="evenodd" d="M169.132 79.5652C168.581 77.055 169.418 73.2965 168.947 70.758L158.512 70.691L158.448 79.5742L169.132 79.5652Z" fill="#CEC0C0"/>
<path fill-rule="evenodd" clip-rule="evenodd" d="M137.322 106.124L137.329 97.2061L126.693 97.2533L126.773 105.97C129.814 106.363 134.315 105.664 137.322 106.124L137.322 106.124Z" fill="#CEC0C0"/>
<path fill-rule="evenodd" clip-rule="evenodd" d="M105.611 79.6555L105.673 70.7755L94.9919 70.7811C95.5427 73.2913 94.7054 77.0498 95.1761 79.5883L105.611 79.6553V79.6555Z" fill="#CEC0C0"/>
<path fill-rule="evenodd" clip-rule="evenodd" d="M31.793 46.6882V49.3431V51.8609L31.7906 53.0376C32.7784 53.2789 41.3474 53.2789 42.335 53.0376L42.3328 51.8609V49.3431V46.6882L42.2671 44.3554L32.0654 44.3159C31.4941 44.5874 31.7963 46.113 31.793 46.688V46.6882Z" fill="#CEC0C0"/>
<path fill-rule="evenodd" clip-rule="evenodd" d="M158.703 106.026L169.015 106.028L169.021 97.4165C168.673 97.1895 169.127 97.3539 168.572 97.2472C168.334 97.2015 168.258 97.2 168.011 97.1886C167.604 97.1698 166.984 97.2008 166.551 97.203L158.447 97.2034L158.447 103.969C158.445 104.306 158.422 104.689 158.429 105.017L158.703 106.026H158.703Z" fill="#CEC0C0"/>
<path fill-rule="evenodd" clip-rule="evenodd" d="M95.104 -8.31684L95.1513 0.200844L97.7386 0.259763L101.125 0.2557H104.141L105.56 0.262132C105.814 -0.530412 105.816 -7.78808 105.55 -8.54609L104.141 -8.54422H101.125H97.9452C97.3371 -8.53271 95.3198 -8.78126 95.1042 -8.31684H95.104Z" fill="#CEC0C0"/>
<path fill-rule="evenodd" clip-rule="evenodd" d="M95.1023 52.9298C95.4503 53.1568 94.9967 52.9924 95.5515 53.0991L105.677 53.1431L105.663 44.8349C105.651 44.7822 105.639 44.7373 105.624 44.6894L105.498 44.4328C105.484 44.4038 105.454 44.3498 105.421 44.3146L95.1088 44.3193L95.1025 52.9298H95.1023Z" fill="#CEC0C0"/>
<path fill-rule="evenodd" clip-rule="evenodd" d="M31.793 72.5524V75.2075V77.7254L31.8062 79.5363L42.2881 79.5844L42.3327 77.7254V75.2075V72.5524L42.3305 70.9057C41.0704 70.564 33.9871 70.7762 32.1038 70.7679L31.7954 70.9057L31.793 72.5524Z" fill="#CEC0C0"/>
<path fill-rule="evenodd" clip-rule="evenodd" d="M31.7931 18.3059V20.8237V23.4789V25.9967L31.7876 26.6392L42.0607 26.713L42.185 26.678L42.333 25.9965V23.4787V20.8236V18.3057C42.1819 17.7189 42.4403 17.9175 41.4294 17.8552L34.1713 17.8747C31.9604 17.8627 31.8855 17.6559 31.7935 18.3057L31.7931 18.3059Z" fill="#CEC0C0"/>
<path fill-rule="evenodd" clip-rule="evenodd" d="M63.9515 0.2557H66.9671H70.1472H73.1628L73.979 0.132103L74.021 0.0283175L73.9326 -8.54897L73.163 -8.54439H70.1474H66.9673H63.9517C63.1187 -8.45347 63.4293 -7.30707 63.4354 -6.55906L63.4127 -0.499427C63.488 0.330195 63.2438 0.120759 63.9517 0.255362L63.9515 0.2557Z" fill="#CEC0C0"/>
<path fill-rule="evenodd" clip-rule="evenodd" d="M127.064 26.713L137.344 26.6392L137.43 17.936L126.791 17.8881L126.809 26.1944C126.821 26.2471 126.834 26.2918 126.849 26.3397L127.064 26.7129V26.713Z" fill="#CEC0C0"/>
<path fill-rule="evenodd" clip-rule="evenodd" d="M169.14 0.24791C168.885 -0.849393 168.887 -7.42356 169.132 -8.5361L158.451 -8.54507V0.253833L169.139 0.24791H169.14Z" fill="#CEC0C0"/>
<path fill-rule="evenodd" clip-rule="evenodd" d="M31.8026 106.124C33.135 105.92 41.009 105.918 42.3232 106.131L42.334 97.2086L31.7957 97.2061L31.8023 106.124H31.8026Z" fill="#CEC0C0"/>
<path fill-rule="evenodd" clip-rule="evenodd" d="M1.9954 0.255707H5.01101L10.6016 0.276701L10.6845 -8.56741L0.193257 -8.55048L0.112549 0.257566L1.9954 0.255707Z" fill="#CEC0C0"/>
<path fill-rule="evenodd" clip-rule="evenodd" d="M128.923 0.255698H132.103H135.119L137.35 0.218451L137.288 -8.53322L135.119 -8.54423H132.103H128.923C128.051 -8.52763 127.282 -8.71879 126.791 -8.28264L126.804 0.166471L128.923 0.255698Z" fill="#CEC0C0"/>
<path fill-rule="evenodd" clip-rule="evenodd" d="M0.21932 79.5585L10.6672 79.5769L10.6775 70.7768L0.120361 70.7792L0.21932 79.5585Z" fill="#CEC0C0"/>
<path fill-rule="evenodd" clip-rule="evenodd" d="M63.5131 79.6555L73.9324 79.581L74.0208 71.0005L63.4492 70.7723L63.5131 79.6555Z" fill="#CEC0C0"/>
<path fill-rule="evenodd" clip-rule="evenodd" d="M31.9001 0.1531L42.2259 0.166476V-8.4594L31.916 -8.45483L31.9137 -2.93716L31.9001 0.1531Z" fill="#CEC0C0"/>
</g>
<defs>
<clipPath id="clip0_1530_430">
<rect width="169.14" height="141.131" fill="white" transform="translate(0 -35)"/>
</clipPath>
</defs>
</svg>
