<svg width="85" height="158" viewBox="0 0 85 158" fill="none" xmlns="http://www.w3.org/2000/svg">
<g clip-path="url(#clip0_1534_543)">
<path fill-rule="evenodd" clip-rule="evenodd" d="M52.287 127.911C52.4319 126.757 52.6351 118.635 52.2091 118.24C51.78 117.843 43.0781 118.031 41.8365 118.167C41.6917 119.321 41.4891 127.445 41.9143 127.838C42.343 128.234 51.0459 128.047 52.287 127.911Z" fill="#CEC0C0"/>
<path fill-rule="evenodd" clip-rule="evenodd" d="M73.7029 68.9149L84.0151 68.9164L84.1246 59.0756L73.4472 59.0627L73.4468 66.6179C73.4439 67.1941 73.2971 68.4412 73.7027 68.9149H73.7029Z" fill="#CEC0C0"/>
<path fill-rule="evenodd" clip-rule="evenodd" d="M10.1098 9.85513L10.9208 9.87045L20.6885 9.86799V0.760264L20.6778 0.00279974L10.0924 0.000152588L10.1098 9.85513Z" fill="#CEC0C0"/>
<path fill-rule="evenodd" clip-rule="evenodd" d="M10.1057 157.51L20.6748 157.494L20.6913 156.738L20.6884 147.63H19.1815L15.8839 147.633L12.7794 147.63L10.1083 147.638L10.1057 157.51Z" fill="#CEC0C0"/>
<path fill-rule="evenodd" clip-rule="evenodd" d="M73.4343 9.86799L84.0312 9.86648L84.0152 0.00279974L73.4487 0.000152588L73.4343 9.86799Z" fill="#CEC0C0"/>
<path fill-rule="evenodd" clip-rule="evenodd" d="M73.4343 98.4479L84.015 98.4464L84.0179 88.5676L73.4487 88.584L73.4343 98.4479Z" fill="#CEC0C0"/>
<path fill-rule="evenodd" clip-rule="evenodd" d="M10.1047 68.774L10.2603 68.9191L20.6871 68.9155L20.6885 59.051L10.107 59.0631L10.1047 68.774Z" fill="#CEC0C0"/>
<path fill-rule="evenodd" clip-rule="evenodd" d="M52.4304 98.3758L52.3505 88.6456C49.3097 88.2068 44.8079 88.9875 41.8014 88.4739L41.7906 98.4354L52.4301 98.3758H52.4304Z" fill="#CEC0C0"/>
<path fill-rule="evenodd" clip-rule="evenodd" d="M84.1314 127.944C83.5807 125.141 84.418 120.943 83.9473 118.108L73.512 118.033L73.4481 127.954L84.1314 127.944Z" fill="#CEC0C0"/>
<path fill-rule="evenodd" clip-rule="evenodd" d="M52.3221 157.604L52.3288 147.645L41.6931 147.698L41.7734 157.432C44.8138 157.871 49.3154 157.09 52.3219 157.604L52.3221 157.604Z" fill="#CEC0C0"/>
<path fill-rule="evenodd" clip-rule="evenodd" d="M20.6114 128.045L20.6728 118.128L9.99194 118.134C10.5427 120.937 9.70541 125.135 10.1761 127.97L20.6114 128.045V128.045Z" fill="#CEC0C0"/>
<path fill-rule="evenodd" clip-rule="evenodd" d="M73.7029 157.495L84.0151 157.496L84.0213 147.88C83.6734 147.626 84.127 147.81 83.5722 147.691C83.3341 147.64 83.2581 147.638 83.0111 147.625C82.6039 147.604 81.9842 147.639 81.5508 147.641L73.4471 147.642L73.4467 155.198C73.4449 155.574 73.4216 156.002 73.4289 156.368L73.7027 157.495H73.7029Z" fill="#CEC0C0"/>
<path fill-rule="evenodd" clip-rule="evenodd" d="M10.1039 29.7992L10.1511 39.3115L12.7385 39.3773L16.125 39.3728H19.1406L20.5597 39.38C20.8135 38.4949 20.8156 30.3897 20.5499 29.5431L19.1406 29.5452H16.125H12.9451C12.3369 29.5581 10.3196 29.2805 10.1041 29.7992H10.1039Z" fill="#CEC0C0"/>
<path fill-rule="evenodd" clip-rule="evenodd" d="M10.1023 98.1981C10.4503 98.4516 9.99665 98.268 10.5515 98.3871L20.6765 98.4363L20.6625 89.1578C20.6512 89.099 20.6386 89.0489 20.6238 88.9954L20.4981 88.7088C20.4845 88.6764 20.454 88.6161 20.421 88.5768L10.1088 88.5821L10.1025 98.1981H10.1023Z" fill="#CEC0C0"/>
<path fill-rule="evenodd" clip-rule="evenodd" d="M42.0642 68.9198L52.3446 68.8373L52.4304 59.1177L41.7909 59.0642L41.8091 68.3406C41.8207 68.3994 41.8337 68.4493 41.8491 68.5028L42.0642 68.9196V68.9198Z" fill="#CEC0C0"/>
<path fill-rule="evenodd" clip-rule="evenodd" d="M84.1395 39.3641C83.8846 38.1387 83.8873 30.7968 84.1314 29.5543L73.4506 29.5443V39.3707L84.1393 39.3641H84.1395Z" fill="#CEC0C0"/>
<path fill-rule="evenodd" clip-rule="evenodd" d="M43.9229 39.3728H47.103H50.1186L52.3494 39.3312L52.2874 29.5575L50.1184 29.5452H47.1028H43.9227C43.0506 29.5638 42.2814 29.3503 41.7906 29.8374L41.804 39.2732L43.9229 39.3728Z" fill="#CEC0C0"/>
<path fill-rule="evenodd" clip-rule="evenodd" d="M41.7961 9.85661L52.3361 9.84697L52.317 0.105059L41.7992 0.0127869L41.7961 9.85661Z" fill="#CEC0C0"/>
</g>
<defs>
<clipPath id="clip0_1534_543">
<rect width="169.14" height="157.612" fill="white" transform="translate(-85)"/>
</clipPath>
</defs>
</svg>
