<svg width="131" height="131" viewBox="0 0 131 131" fill="none" xmlns="http://www.w3.org/2000/svg">
<g clip-path="url(#clip0_1632_1361)">
<path fill-rule="evenodd" clip-rule="evenodd" d="M107.068 30.7349C106.108 30.6226 99.3581 30.4653 99.0301 30.7953C98.6998 31.1276 98.8563 37.8673 98.969 38.8289C99.9278 38.9411 106.68 39.098 107.007 38.7686C107.336 38.4366 107.181 31.6961 107.068 30.7349Z" fill="#CDCDCD"/>
<path fill-rule="evenodd" clip-rule="evenodd" d="M57.7271 128.993C57.2077 128.578 50.2027 128.795 49.5376 128.795L49.5491 137.065L57.7275 136.978L57.7271 128.993Z" fill="#CDCDCD"/>
<path fill-rule="evenodd" clip-rule="evenodd" d="M57.7273 14.1481L57.7285 6.16127L49.5493 6.07645L49.5386 14.3462L55.8181 14.3465C56.297 14.3487 57.3336 14.4624 57.7273 14.1483L57.7273 14.1481Z" fill="#CDCDCD"/>
<path fill-rule="evenodd" clip-rule="evenodd" d="M131.877 87.912L131.79 79.7387L123.8 79.7339C123.774 79.7667 123.751 79.8168 123.74 79.8435C123.497 80.4675 123.602 80.8739 123.606 81.6471L123.602 87.9241L131.877 87.912Z" fill="#CDCDCD"/>
<path fill-rule="evenodd" clip-rule="evenodd" d="M8.19104 63.4015L8.20377 62.7734L8.20173 55.2082L0.631772 55.2082L0.00219984 55.2165L0 63.415L8.19104 63.4015Z" fill="#CDCDCD"/>
<path fill-rule="evenodd" clip-rule="evenodd" d="M131.805 63.4046L131.791 55.2187L131.163 55.206L123.593 55.2082L123.593 56.3753L123.595 58.9294L123.593 61.3338L123.599 63.4026L131.805 63.4046Z" fill="#CDCDCD"/>
<path fill-rule="evenodd" clip-rule="evenodd" d="M8.20173 14.3561L8.20047 6.14868L0.00219984 6.16109L-4.87405e-10 14.3449L8.20173 14.3561Z" fill="#CDCDCD"/>
<path fill-rule="evenodd" clip-rule="evenodd" d="M82.3962 14.3561L82.3949 6.16124L74.1841 6.15905L74.1978 14.3449L82.3962 14.3561Z" fill="#CDCDCD"/>
<path fill-rule="evenodd" clip-rule="evenodd" d="M131.792 136.98L131.793 128.796L123.593 128.785L123.595 136.992L131.792 136.98Z" fill="#CDCDCD"/>
<path fill-rule="evenodd" clip-rule="evenodd" d="M57.6102 63.4054L57.7307 63.2849L57.7277 55.2093L49.5288 55.2082L49.5389 63.4037L57.6102 63.4054Z" fill="#CDCDCD"/>
<path fill-rule="evenodd" clip-rule="evenodd" d="M57.0983 87.933L57.7278 87.9247L57.7286 79.7387L49.539 79.7392L49.5307 85.3263L49.5283 87.933L57.0983 87.933Z" fill="#CDCDCD"/>
<path fill-rule="evenodd" clip-rule="evenodd" d="M74.3142 79.7356L74.199 80.0161L74.1943 87.9224L82.3962 87.9336L82.395 79.7386L74.3142 79.7356Z" fill="#CDCDCD"/>
<path fill-rule="evenodd" clip-rule="evenodd" d="M82.3854 136.979L82.3981 136.351L82.3961 128.833L74.8261 128.786L74.1965 128.794L74.1943 136.992L82.3854 136.979Z" fill="#CDCDCD"/>
<path fill-rule="evenodd" clip-rule="evenodd" d="M8.20197 87.9337L8.20071 79.7263L0.00244105 79.7387L0.0024414 87.8856L8.20197 87.9337Z" fill="#CDCDCD"/>
<path fill-rule="evenodd" clip-rule="evenodd" d="M82.3365 30.6238L74.2491 30.6857C73.8844 33.0408 74.5333 36.5275 74.1064 38.8561L82.386 38.8644L82.3365 30.624L82.3365 30.6238Z" fill="#CDCDCD"/>
<path fill-rule="evenodd" clip-rule="evenodd" d="M107.095 6.07115C104.765 6.49772 101.276 5.84923 98.9201 6.21377L98.8579 14.296L107.103 14.3455L107.095 6.07115Z" fill="#CDCDCD"/>
<path fill-rule="evenodd" clip-rule="evenodd" d="M131.882 30.7077L123.604 30.7025L123.648 38.9399L131.739 38.8777C132.104 36.523 131.455 33.0364 131.882 30.7079L131.882 30.7077Z" fill="#CDCDCD"/>
<path fill-rule="evenodd" clip-rule="evenodd" d="M107.179 55.2679L98.9365 55.2203L98.9417 63.4927C101.272 63.0662 104.76 63.7147 107.117 63.3501L107.179 55.2679L107.179 55.2679Z" fill="#CDCDCD"/>
<path fill-rule="evenodd" clip-rule="evenodd" d="M76.3948 112.441L78.8592 112.441L81.1963 112.441L82.2885 112.443C82.5125 111.678 82.5125 105.041 82.2885 104.276L81.1963 104.278L78.8592 104.278L76.3948 104.278L74.2295 104.329L74.1929 112.23C74.4448 112.672 75.8609 112.438 76.3946 112.441L76.3948 112.441Z" fill="#CDCDCD"/>
<path fill-rule="evenodd" clip-rule="evenodd" d="M131.792 14.1482L131.793 6.16128L123.8 6.15642C123.589 6.42593 123.742 6.07458 123.643 6.5043C123.601 6.68868 123.599 6.74758 123.589 6.93887C123.571 7.25425 123.6 7.73421 123.602 8.06985L123.602 14.3462L129.883 14.3465C130.195 14.348 130.551 14.366 130.855 14.3604L131.792 14.1483L131.792 14.1482Z" fill="#CDCDCD"/>
<path fill-rule="evenodd" clip-rule="evenodd" d="M25.1378 63.406L33.044 63.3694L33.0987 61.3655L33.095 58.7426L33.095 56.407L33.1009 55.3079C32.3653 55.1113 25.6286 55.1097 24.925 55.3155L24.9267 56.407L24.9267 58.7426L24.9267 61.2055C24.9374 61.6765 24.7067 63.2389 25.1378 63.4058L25.1378 63.406Z" fill="#CDCDCD"/>
<path fill-rule="evenodd" clip-rule="evenodd" d="M82.1887 63.4073C82.3994 63.1378 82.2468 63.4891 82.3459 63.0594L82.3867 55.2175L74.6748 55.2283C74.626 55.2371 74.5843 55.2468 74.5398 55.2583L74.3016 55.3557C74.2747 55.3662 74.2246 55.3898 74.1919 55.4154L74.1963 63.4023L82.1887 63.4071L82.1887 63.4073Z" fill="#CDCDCD"/>
<path fill-rule="evenodd" clip-rule="evenodd" d="M8.34635 136.664L8.49989 136.192L8.49989 136.03L8.49989 132.673L8.49989 131.232L8.47034 128.478L0.233886 128.511L0.313565 128.641L0.322523 136.66L8.34635 136.664Z" fill="#CDCDCD"/>
<path fill-rule="evenodd" clip-rule="evenodd" d="M100.586 112.441L103.05 112.441L105.387 112.441L107.068 112.431L107.113 104.312L105.387 104.278L103.05 104.278L100.586 104.278L99.0573 104.279C98.7402 105.255 98.9371 110.741 98.9294 112.2L99.0573 112.439L100.586 112.441Z" fill="#CDCDCD"/>
<path fill-rule="evenodd" clip-rule="evenodd" d="M49.9277 112.441L52.2648 112.441L54.7293 112.441L57.0664 112.441L57.6628 112.445L57.7314 104.489L57.6988 104.392L57.0663 104.278L54.7292 104.278L52.2646 104.278L49.9276 104.278C49.3829 104.395 49.5672 104.195 49.5094 104.977L49.5274 110.599C49.5163 112.311 49.3244 112.369 49.9276 112.441L49.9277 112.441Z" fill="#CDCDCD"/>
<path fill-rule="evenodd" clip-rule="evenodd" d="M33.095 87.5339L33.095 85.1982L33.095 82.7353L33.095 80.3996L32.9803 79.7675L32.884 79.735L24.9224 79.8034L24.9266 80.3995L24.9266 82.7351L24.9266 85.1981L24.9266 87.5337C25.011 88.1789 26.0751 87.9383 26.7694 87.9336L32.3941 87.9512C33.1642 87.8929 32.9698 88.082 33.0947 87.5337L33.095 87.5339Z" fill="#CDCDCD"/>
<path fill-rule="evenodd" clip-rule="evenodd" d="M57.7311 38.6525L57.6625 30.6903L49.584 30.6239L49.5396 38.8643L57.2497 38.8501C57.2986 38.8412 57.3401 38.8311 57.3845 38.8192L57.7309 38.6525L57.7311 38.6525Z" fill="#CDCDCD"/>
<path fill-rule="evenodd" clip-rule="evenodd" d="M33.0881 6.06475C32.0695 6.26218 25.9673 6.26013 24.9346 6.07103L24.9263 14.3434L33.0936 14.3434L33.0881 6.06491L33.0881 6.06475Z" fill="#CDCDCD"/>
<path fill-rule="evenodd" clip-rule="evenodd" d="M131.882 112.434C131.693 111.401 131.691 105.303 131.888 104.285L123.607 104.277L123.604 112.439L131.882 112.434L131.882 112.434Z" fill="#CDCDCD"/>
<path fill-rule="evenodd" clip-rule="evenodd" d="M33.0951 135.519L33.0951 133.184L33.1145 128.854L24.9053 128.789L24.921 136.915L33.0968 136.977L33.0951 135.519Z" fill="#CDCDCD"/>
<path fill-rule="evenodd" clip-rule="evenodd" d="M33.0953 37.2129L33.0953 34.7499L33.0953 32.4143L33.0608 30.6865L24.9373 30.7346L24.9271 32.4145L24.9271 34.7501L24.9271 37.2131C24.9425 37.8886 24.7651 38.4843 25.1699 38.8644L33.0125 38.854L33.0953 37.2129Z" fill="#CDCDCD"/>
<path fill-rule="evenodd" clip-rule="evenodd" d="M8.19202 38.8602L8.18401 30.6969L0.0869463 30.7117L0.0102539 38.8578L8.19202 38.8602Z" fill="#CDCDCD"/>
<path fill-rule="evenodd" clip-rule="evenodd" d="M107.089 136.895L107.106 128.803L98.938 128.795L98.9402 136.972L107.089 136.895Z" fill="#CDCDCD"/>
<path fill-rule="evenodd" clip-rule="evenodd" d="M1.46376 112.441L3.80069 112.441L6.23348 112.443L8.11811 112.444L8.18773 104.201L6.23348 104.275L3.80069 104.278L1.46376 104.278L0.00439417 104.276L0.0669431 112.443L1.46376 112.441Z" fill="#CDCDCD"/>
<path fill-rule="evenodd" clip-rule="evenodd" d="M107.179 87.8734L107.11 79.8036L99.1454 79.7351L98.9336 87.9229L107.179 87.8734Z" fill="#CDCDCD"/>
<path fill-rule="evenodd" clip-rule="evenodd" d="M33.0001 112.358L33.0126 104.361L25.0059 104.361L25.0101 112.346L30.1317 112.347L33.0001 112.358Z" fill="#CDCDCD"/>
</g>
<defs>
<clipPath id="clip0_1632_1361">
<rect width="131" height="131" fill="white" transform="translate(0 131) rotate(-90)"/>
</clipPath>
</defs>
</svg>
