<svg width="170" height="142" viewBox="0 0 170 142" fill="none" xmlns="http://www.w3.org/2000/svg">
<g clip-path="url(#clip0_1630_512)">
<path fill-rule="evenodd" clip-rule="evenodd" d="M137.287 114.536C137.432 113.502 137.635 106.23 137.209 105.876C136.78 105.52 128.078 105.689 126.836 105.81C126.692 106.843 126.489 114.118 126.914 114.47C127.343 114.825 136.046 114.657 137.287 114.536Z" fill="#262626"/>
<path fill-rule="evenodd" clip-rule="evenodd" d="M10.4219 61.7085C10.9571 61.1489 10.6774 53.6023 10.6774 52.8857L0 52.8981L0.112545 61.709L10.4219 61.7085Z" fill="#262626"/>
<path fill-rule="evenodd" clip-rule="evenodd" d="M158.703 61.7087L169.015 61.71L169.125 52.8982L158.447 52.8867L158.447 59.6519C158.444 60.1678 158.297 61.2845 158.703 61.7087H158.703Z" fill="#262626"/>
<path fill-rule="evenodd" clip-rule="evenodd" d="M63.4632 141.118L74.0162 141.024L74.0224 132.416C73.9801 132.389 73.9154 132.363 73.8809 132.352C73.0752 132.09 72.5504 132.203 71.5521 132.207L63.4476 132.203L63.4632 141.118Z" fill="#262626"/>
<path fill-rule="evenodd" clip-rule="evenodd" d="M95.1098 8.82448L95.9208 8.83819L105.689 8.83599V0.680629L105.678 0.00237035L95.0924 0L95.1098 8.82448Z" fill="#262626"/>
<path fill-rule="evenodd" clip-rule="evenodd" d="M95.1057 141.04L105.675 141.025L105.691 140.348L105.688 132.193H104.182L100.884 132.196L97.7794 132.193L95.1083 132.199L95.1057 141.04Z" fill="#262626"/>
<path fill-rule="evenodd" clip-rule="evenodd" d="M158.434 8.83599L169.031 8.83463L169.015 0.00237035L158.449 0L158.434 8.83599Z" fill="#262626"/>
<path fill-rule="evenodd" clip-rule="evenodd" d="M158.434 88.1533L169.015 88.152L169.018 79.3062L158.449 79.3209L158.434 88.1533Z" fill="#262626"/>
<path fill-rule="evenodd" clip-rule="evenodd" d="M0.109404 141.026L10.6759 141.028L10.6903 132.193L0.0933838 132.195L0.109404 141.026Z" fill="#262626"/>
<path fill-rule="evenodd" clip-rule="evenodd" d="M95.1047 61.5825L95.2603 61.7124L105.687 61.7092L105.688 52.8762L95.107 52.8871L95.1047 61.5825Z" fill="#262626"/>
<path fill-rule="evenodd" clip-rule="evenodd" d="M63.436 61.0308L63.4468 61.7091L74.0161 61.71L74.0155 52.887L66.8017 52.878L63.436 52.8755V61.0308Z" fill="#262626"/>
<path fill-rule="evenodd" clip-rule="evenodd" d="M74.0201 79.4463L73.6579 79.3222L63.4497 79.3171L63.4353 88.1533L74.0162 88.1519L74.0201 79.4463Z" fill="#262626"/>
<path fill-rule="evenodd" clip-rule="evenodd" d="M0.110823 88.1419L0.921759 88.1556L10.6282 88.1534L10.6895 79.998L10.6787 79.3197L0.0933838 79.3174L0.110823 88.1419Z" fill="#262626"/>
<path fill-rule="evenodd" clip-rule="evenodd" d="M63.4353 8.83606L74.0322 8.8347L74.0162 0.00244141H63.4974L63.4353 8.83606Z" fill="#262626"/>
<path fill-rule="evenodd" clip-rule="evenodd" d="M137.43 88.0889L137.35 79.3761C134.31 78.9832 129.808 79.6823 126.801 79.2224L126.791 88.1422L137.43 88.0889H137.43Z" fill="#262626"/>
<path fill-rule="evenodd" clip-rule="evenodd" d="M169.131 114.565C168.581 112.055 169.418 108.296 168.947 105.758L158.512 105.691L158.448 114.574L169.131 114.565Z" fill="#262626"/>
<path fill-rule="evenodd" clip-rule="evenodd" d="M137.322 141.124L137.329 132.206L126.693 132.253L126.773 140.97C129.814 141.363 134.315 140.664 137.322 141.124L137.322 141.124Z" fill="#262626"/>
<path fill-rule="evenodd" clip-rule="evenodd" d="M105.611 114.655L105.673 105.775L94.9919 105.781C95.5427 108.291 94.7054 112.05 95.1761 114.588L105.611 114.655V114.655Z" fill="#262626"/>
<path fill-rule="evenodd" clip-rule="evenodd" d="M31.7929 81.6881V84.3431V86.8609L31.7905 88.0376C32.7782 88.2789 41.3473 88.2789 42.3349 88.0376L42.3326 86.8609V84.3431V81.6881L42.2669 79.3554L32.0653 79.3159C31.494 79.5873 31.7962 81.113 31.7929 81.688V81.6881Z" fill="#262626"/>
<path fill-rule="evenodd" clip-rule="evenodd" d="M158.703 141.026L169.015 141.028L169.021 132.417C168.673 132.189 169.127 132.354 168.572 132.247C168.334 132.202 168.258 132.2 168.011 132.189C167.604 132.17 166.984 132.201 166.551 132.203L158.447 132.203L158.447 138.969C158.445 139.306 158.422 139.689 158.429 140.017L158.703 141.026H158.703Z" fill="#262626"/>
<path fill-rule="evenodd" clip-rule="evenodd" d="M95.1039 26.683L95.1511 35.2007L97.7385 35.2596L101.125 35.2556H104.141L105.56 35.262C105.814 34.4695 105.816 27.2118 105.55 26.4538L104.141 26.4557H101.125H97.9451C97.3369 26.4672 95.3196 26.2186 95.1041 26.683H95.1039Z" fill="#262626"/>
<path fill-rule="evenodd" clip-rule="evenodd" d="M95.1023 87.9297C95.4503 88.1567 94.9967 87.9923 95.5515 88.099L105.677 88.143L105.663 79.8347C105.651 79.7821 105.639 79.7372 105.624 79.6893L105.498 79.4326C105.484 79.4037 105.454 79.3497 105.421 79.3145L95.1088 79.3192L95.1025 87.9297H95.1023Z" fill="#262626"/>
<path fill-rule="evenodd" clip-rule="evenodd" d="M0.517944 8.99177L1.12751 9.15719H1.33598H5.6709H7.53165L11.0871 9.12536L11.0437 0.251953L10.876 0.337794L0.522811 0.347444L0.517944 8.99177Z" fill="#262626"/>
<path fill-rule="evenodd" clip-rule="evenodd" d="M31.793 107.552V110.207V112.725L31.8062 114.536L42.2881 114.584L42.3327 112.725V110.207V107.552L42.3305 105.906C41.0704 105.564 33.9871 105.776 32.1038 105.768L31.7954 105.906L31.793 107.552Z" fill="#262626"/>
<path fill-rule="evenodd" clip-rule="evenodd" d="M31.7929 53.3058V55.8236V58.4788V60.9966L31.7875 61.6391L42.0605 61.7129L42.1848 61.6779L42.3329 60.9964V58.4786V55.8235V53.3057C42.1818 52.7188 42.4402 52.9174 41.4293 52.8551L34.1712 52.8746C31.9602 52.8626 31.8854 52.6558 31.7934 53.3057L31.7929 53.3058Z" fill="#262626"/>
<path fill-rule="evenodd" clip-rule="evenodd" d="M63.9515 35.2556H66.9671H70.1472H73.1628L73.979 35.132L74.021 35.0282L73.9326 26.4509L73.163 26.4555H70.1474H66.9673H63.9517C63.1187 26.5464 63.4293 27.6928 63.4354 28.4408L63.4127 34.5005C63.488 35.3301 63.2438 35.1207 63.9517 35.2553L63.9515 35.2556Z" fill="#262626"/>
<path fill-rule="evenodd" clip-rule="evenodd" d="M127.064 61.7129L137.345 61.6391L137.43 52.9359L126.791 52.8879L126.809 61.1943C126.821 61.247 126.834 61.2917 126.849 61.3396L127.064 61.7128V61.7129Z" fill="#262626"/>
<path fill-rule="evenodd" clip-rule="evenodd" d="M169.14 35.2478C168.885 34.1505 168.887 27.5763 169.131 26.4638L158.451 26.4548V35.2537L169.139 35.2478H169.14Z" fill="#262626"/>
<path fill-rule="evenodd" clip-rule="evenodd" d="M31.8026 141.124C33.135 140.92 41.009 140.918 42.3232 141.131L42.334 132.209L31.7957 132.206L31.8023 141.124H31.8026Z" fill="#262626"/>
<path fill-rule="evenodd" clip-rule="evenodd" d="M1.99553 35.2557H5.01114L10.6017 35.2767L10.6846 26.4326L0.193379 26.4495L0.112671 35.2576L1.99553 35.2557Z" fill="#262626"/>
<path fill-rule="evenodd" clip-rule="evenodd" d="M128.923 35.2556H132.103H135.119L137.349 35.2184L137.287 26.4667L135.118 26.4557H132.103H128.923C128.051 26.4723 127.281 26.2811 126.791 26.7173L126.804 35.1664L128.923 35.2556Z" fill="#262626"/>
<path fill-rule="evenodd" clip-rule="evenodd" d="M126.796 8.82572L137.336 8.81708L137.317 0.0938541L126.799 0.0112305L126.796 8.82572Z" fill="#262626"/>
<path fill-rule="evenodd" clip-rule="evenodd" d="M0.219198 114.558L10.6671 114.577L10.6774 105.777L0.120239 105.779L0.219198 114.558Z" fill="#262626"/>
<path fill-rule="evenodd" clip-rule="evenodd" d="M31.7929 1.57735V4.095L31.7897 6.71593L31.7885 8.7463L42.4322 8.82131L42.3359 6.71593L42.3326 4.095V1.57735L42.3347 0.00512695L31.7905 0.0725126L31.7929 1.57735Z" fill="#262626"/>
<path fill-rule="evenodd" clip-rule="evenodd" d="M63.5131 114.655L73.9324 114.581L74.0208 106L63.4492 105.772L63.5131 114.655Z" fill="#262626"/>
<path fill-rule="evenodd" clip-rule="evenodd" d="M31.9 35.153L42.2258 35.1664V26.5405L31.9158 26.5451L31.9136 32.0628L31.9 35.153Z" fill="#262626"/>
</g>
<defs>
<clipPath id="clip0_1630_512">
<rect width="169.14" height="141.131" fill="white"/>
</clipPath>
</defs>
</svg>
