<svg width="152" height="114" viewBox="0 0 152 114" fill="none" xmlns="http://www.w3.org/2000/svg">
<path fill-rule="evenodd" clip-rule="evenodd" d="M147.912 9.55304C147.731 8.17984 147.66 8.08865 148.369 7.31414C150.017 5.51535 152.202 3.42463 151.985 0.882221C149.464 0.840327 147.445 2.8987 145.791 4.47979C144.847 5.38288 144.998 5.23055 143.425 5.11086C143.602 4.38506 144.359 3.52292 142.983 3.3703C141.878 3.24792 141.498 4.63218 141.376 4.39577C141.352 4.35092 141.277 4.48517 141.224 4.52584C139.368 4.49111 137.792 4.07357 136.116 3.77537C135.506 3.66698 133.96 3.36257 133.506 3.4671C133.001 3.58322 132.262 4.06222 132.175 4.90268L141.602 8.57868C141.489 9.06898 138.469 12.8857 137.704 13.5385C135.65 13.8162 132.837 12.5175 132.535 14.5037L135.573 15.7323C135.556 15.887 135.461 16.6829 135.462 16.7529C135.469 17.224 135.501 17.2094 135.593 17.4211C137.007 17.8812 136.585 16.1691 137.557 18.3994C137.969 19.3441 138.11 19.8893 138.756 20.5694C140.413 18.5494 139.103 17.8497 139.303 15.2467C140.03 14.6334 143.835 11.4792 144.241 11.3162C145.13 12.4049 147.315 19.7871 148.235 20.9477C150.428 19.5647 149.39 18.3287 148.975 15.5229C148.852 14.691 148.362 12.8964 148.368 12.1872C148.379 10.8627 149.344 11.3732 149.809 9.91716L149.011 9.01968C148.209 9.30653 148.463 9.4684 147.912 9.55304H147.912Z" fill="url(#paint0_linear_1688_45)"/>
<path fill-rule="evenodd" clip-rule="evenodd" d="M78.6201 95.9671C79.8551 96.1835 84.3316 96.033 85.3266 95.7666C97.8748 48.8414 128.495 22.566 128.495 22.566C91.7925 48.8414 80.7307 86.2883 80.4846 85.8558C76.0307 78.0321 71.8533 72.5379 67.3437 64.8611L62.2806 67.2069L60.3705 66.1383C60.4554 66.5641 76.1257 91.1136 78.6201 95.9671L78.6201 95.9671Z" fill="white"/>
<path fill-rule="evenodd" clip-rule="evenodd" d="M49.1281 60.4335C43.3125 73.1275 52.4904 87.6954 67.501 82.1817C67.8133 82.0671 67.6658 82.0438 67.9837 81.8707L70.9512 86.9151C66.6235 89.0825 60.0624 89.3086 55.351 87.771C50.1524 86.0744 45.9119 81.9509 43.8502 77.9801C39.7748 70.1319 41.3621 60.2597 47.7816 54.176C48.033 53.9379 48.4454 53.5684 48.952 53.1475L49.1281 60.4335H49.1281Z" fill="white"/>
<path fill-rule="evenodd" clip-rule="evenodd" d="M78.6789 79.8131C78.6789 79.8131 75.5744 76.0707 75.8879 75.0361C77.5375 69.5906 78.109 64.9474 75.1572 60.5175C75.0429 60.3458 74.8831 52.6808 74.8831 52.6808C76.7537 54.2859 79.0381 56.4075 80.0557 58.4996C83.7436 65.2009 83.1903 73.6422 78.6789 79.8131Z" fill="white"/>
<path d="M29.1197 48.8414V78.6109L5.1673 48.8414H0.490845V88.7622H6.19383V58.9927L30.1463 88.7622H34.8227V48.8414H29.1197Z" fill="white"/>
<path d="M133.747 88.7622H139.735L121.599 48.8414H115.953L97.8749 88.7622H103.749C110.6 73.1916 110.267 73.9234 118.748 54.6585C128.216 76.165 124.766 68.3513 133.747 88.7622Z" fill="white"/>
<path d="M121.653 73.7665H114.856V80.5637H121.653V73.7665Z" fill="white"/>
<path fill-rule="evenodd" clip-rule="evenodd" d="M62.2792 63.9323C63.0235 62.7412 62.3071 47.2254 62.2824 45.4367C62.2708 44.5986 62.3164 42.8768 62.2807 41.9991C62.251 41.2701 61.7676 39.5912 61.6804 39.607C61.3214 39.5696 61.4964 39.5767 60.912 39.8796L58.7932 40.9012C58.7601 41.7238 58.8125 44.2632 58.8125 44.2632C58.2631 44.5524 51.9596 47.1521 51.737 47.1692C51.737 47.1692 51.6524 44.7136 51.6343 44.5918C51.3727 44.6049 50.4353 45.1085 50.1857 45.2187C50.1857 45.2187 50.4706 56.4306 50.5252 58.9351L62.2792 63.9323H62.2792Z" fill="#FD8802"/>
<path fill-rule="evenodd" clip-rule="evenodd" d="M73.3879 44.9814L73.3716 44.6643C71.8424 43.8852 69.2993 42.9232 67.5638 42.1238C66.7458 41.747 62.1866 39.7168 61.6804 39.6069C61.6804 39.6069 61.6629 41.5321 61.6927 42.2611C61.7284 43.1389 61.7539 43.9996 61.7655 44.8377C61.7902 46.6263 62.312 62.1796 62.2791 63.9323C62.2791 63.9323 73.6853 58.4068 73.6938 58.3283L73.3879 44.9814H73.3879Z" fill="white"/>
<path fill-rule="evenodd" clip-rule="evenodd" d="M52.2136 44.2074L52.2192 46.348C52.7366 46.2717 57.1939 44.2788 58.17 43.9211L58.2246 41.2915C57.5532 41.4004 53.3426 43.786 52.2136 44.2074V44.2074Z" fill="white"/>
<path fill-rule="evenodd" clip-rule="evenodd" d="M87.837 96.4487C102.926 44.9958 135.954 20.0944 135.954 20.0944C117.041 32.5115 95.5876 62.9157 87.837 96.4487Z" fill="url(#paint1_linear_1688_45)"/>
<path d="M3.28354 113.829C5.15859 113.829 6.54949 112.491 6.54949 110.677C6.54949 108.864 5.15862 107.526 3.28354 107.526C1.39093 107.526 0 108.873 0 110.677C0 112.482 1.39093 113.829 3.28354 113.829ZM3.28354 113.045C1.90147 113.045 0.880273 112.042 0.880273 110.677C0.880273 109.313 1.90144 108.309 3.28354 108.309C4.64802 108.309 5.66913 109.313 5.66913 110.677C5.66913 112.042 4.64802 113.045 3.28354 113.045ZM12.3155 107.596V112.191L8.61822 107.596H7.89639V113.758H8.77667V109.163L12.474 113.758H13.1958V107.596H12.3155H12.3155ZM19.1907 110.563C19.6748 110.325 20.0182 109.858 20.0182 109.189C20.0182 108.195 19.2259 107.596 17.8086 107.596H15.0445V113.758H17.9847C19.5428 113.758 20.3439 113.151 20.3439 112.094C20.3439 111.276 19.8861 110.756 19.1907 110.563ZM17.7294 108.309C18.6273 108.309 19.1378 108.644 19.1378 109.295C19.1378 109.947 18.6273 110.281 17.7294 110.281H15.9247V108.309H17.7294ZM17.9495 113.045H15.9247V110.994H17.9495C18.9266 110.994 19.4548 111.311 19.4548 112.024C19.4548 112.737 18.9266 113.045 17.9495 113.045V113.045ZM24.4901 113.829C26.3652 113.829 27.7561 112.491 27.7561 110.677C27.7561 108.864 26.3652 107.526 24.4901 107.526C22.5975 107.526 21.2066 108.873 21.2066 110.677C21.2066 112.482 22.5975 113.829 24.4901 113.829ZM24.4901 113.045C23.108 113.045 22.0868 112.042 22.0868 110.677C22.0868 109.313 23.108 108.309 24.4901 108.309C25.8546 108.309 26.8757 109.313 26.8757 110.677C26.8757 112.042 25.8546 113.045 24.4901 113.045ZM33.6189 113.758H34.5432L31.7438 107.596H30.8723L28.0818 113.758H28.9885L29.6663 112.218H32.941L33.6189 113.758ZM29.9744 111.513L31.3037 108.494L32.6329 111.513H29.9744ZM40.5381 113.758L39.0768 111.69C39.9394 111.381 40.4324 110.695 40.4324 109.744C40.4324 108.406 39.4641 107.596 37.8619 107.596H35.4587V113.758H36.339V111.883H37.8619C37.994 111.883 38.126 111.874 38.2493 111.866L39.5785 113.758H40.538L40.5381 113.758ZM37.8355 111.135H36.339V108.362H37.8355C38.9624 108.362 39.5522 108.864 39.5522 109.744C39.5522 110.624 38.9624 111.135 37.8355 111.135V111.135ZM41.8586 113.758H44.4555C46.4362 113.758 47.783 112.508 47.783 110.677C47.783 108.846 46.4362 107.596 44.4555 107.596H41.8586V113.758ZM42.7389 112.992V108.362H44.4026C45.9256 108.362 46.9027 109.295 46.9027 110.677C46.9027 112.059 45.9256 112.992 44.4026 112.992H42.7389ZM54.2533 113.829C55.2128 113.829 56.0403 113.494 56.6037 112.86L56.0315 112.306C55.5561 112.807 54.9751 113.045 54.2973 113.045C52.9064 113.045 51.8764 112.042 51.8764 110.677C51.8764 109.313 52.9064 108.309 54.2973 108.309C54.9751 108.309 55.5561 108.538 56.0315 109.04L56.6037 108.485C56.0403 107.851 55.2128 107.526 54.2621 107.526C52.3871 107.526 50.9961 108.855 50.9961 110.677C50.9961 112.499 52.3871 113.829 54.2533 113.829ZM60.5123 113.829C62.3873 113.829 63.7782 112.491 63.7782 110.677C63.7782 108.864 62.3873 107.526 60.5123 107.526C58.6196 107.526 57.2287 108.873 57.2287 110.677C57.2287 112.482 58.6196 113.829 60.5123 113.829ZM60.5123 113.045C59.1302 113.045 58.109 112.042 58.109 110.677C58.109 109.313 59.1302 108.309 60.5123 108.309C61.8768 108.309 62.8979 109.313 62.8979 110.677C62.8979 112.042 61.8768 113.045 60.5123 113.045ZM67.678 113.829C69.3066 113.829 70.2837 112.887 70.2837 111.1V107.596H69.4298V111.064C69.4298 112.429 68.796 113.045 67.6869 113.045C66.5777 113.045 65.9526 112.429 65.9526 111.064V107.596H65.0723V111.1C65.0723 112.887 66.0582 113.829 67.678 113.829H67.678ZM77.1677 113.758L75.7064 111.69C76.569 111.381 77.062 110.695 77.062 109.744C77.062 108.406 76.0937 107.596 74.4915 107.596H72.0883V113.758H72.9685V111.883H74.4915C74.6235 111.883 74.7556 111.874 74.8789 111.866L76.2081 113.758H77.1676L77.1677 113.758ZM74.4651 111.135H72.9686V108.362H74.4651C75.592 108.362 76.1817 108.864 76.1817 109.744C76.1817 110.624 75.592 111.135 74.4651 111.135V111.135ZM78.4881 113.758H79.3684V107.596H78.4881V113.758ZM82.0974 112.992V111.003H85.1872V110.255H82.0974V108.362H85.5657V107.596H81.2171V113.758H85.689V112.992H82.0974ZM92.1945 113.758L90.7332 111.69C91.5958 111.381 92.0888 110.695 92.0888 109.744C92.0888 108.406 91.1205 107.596 89.5183 107.596H87.1151V113.758H87.9954V111.883H89.5183C89.6504 111.883 89.7824 111.874 89.9057 111.866L91.2349 113.758H92.1944L92.1945 113.758ZM89.4919 111.135H87.9954V108.362H89.4919C90.6187 108.362 91.2086 108.864 91.2086 109.744C91.2086 110.624 90.6187 111.135 89.4919 111.135V111.135ZM97.6788 113.829C99.3074 113.829 100.064 113.019 100.064 112.078C100.064 109.817 96.3319 110.761 96.3319 109.253C96.3319 108.714 96.7809 108.274 97.8285 108.274C98.3743 108.274 98.9817 108.432 99.5186 108.776L99.8092 108.071C99.2986 107.719 98.5503 107.526 97.8285 107.526C96.2087 107.526 95.4692 108.336 95.4692 109.288C95.4692 111.578 99.2017 110.629 99.2017 112.131C99.2017 112.668 98.744 113.08 97.6788 113.08C96.8865 113.08 96.103 112.783 95.6453 112.369L95.3196 113.054C95.8126 113.512 96.7369 113.829 97.6788 113.829V113.829ZM102.23 112.992V111.003H105.32V110.255H102.23V108.362H105.698V107.596H101.35V113.758H105.822V112.992H102.23ZM112.327 113.758L110.866 111.69C111.729 111.381 112.222 110.695 112.222 109.744C112.222 108.406 111.253 107.596 109.651 107.596H107.248V113.758H108.128V111.883H109.651C109.783 111.883 109.915 111.874 110.038 111.866L111.368 113.758H112.327L112.327 113.758ZM109.625 111.135H108.128V108.362H109.625C110.751 108.362 111.341 108.864 111.341 109.744C111.341 110.624 110.751 111.135 109.625 111.135V111.135ZM118.12 107.596L115.884 112.658L113.665 107.596H112.714L115.426 113.758H116.297L119 107.596H118.119H118.12ZM119.783 113.758H120.664V107.596H119.783V113.758ZM125.268 113.829C126.227 113.829 127.055 113.494 127.618 112.86L127.046 112.306C126.57 112.807 125.989 113.045 125.312 113.045C123.921 113.045 122.891 112.042 122.891 110.677C122.891 109.313 123.921 108.309 125.312 108.309C125.989 108.309 126.57 108.538 127.046 109.04L127.618 108.485C127.055 107.851 126.227 107.526 125.276 107.526C123.401 107.526 122.01 108.855 122.01 110.677C122.01 112.499 123.401 113.829 125.268 113.829ZM129.757 112.992V111.003H132.847V110.255H129.757V108.362H133.226V107.596H128.877V113.758H133.349V112.992H129.757ZM136.571 113.829C138.199 113.829 138.956 113.019 138.956 112.078C138.956 109.817 135.224 110.761 135.224 109.253C135.224 108.714 135.673 108.274 136.72 108.274C137.266 108.274 137.874 108.432 138.411 108.776L138.701 108.071C138.19 107.719 137.442 107.526 136.72 107.526C135.101 107.526 134.361 108.336 134.361 109.288C134.361 111.578 138.094 110.629 138.094 112.131C138.094 112.668 137.636 113.08 136.571 113.08C135.778 113.08 134.995 112.783 134.537 112.369L134.212 113.054C134.704 113.512 135.629 113.829 136.571 113.829L136.571 113.829Z" fill="white"/>
<defs>
<linearGradient id="paint0_linear_1688_45" x1="132.175" y1="10.9144" x2="152.001" y2="10.9144" gradientUnits="userSpaceOnUse">
<stop stop-color="#FFB405"/>
<stop offset="1" stop-color="#FC6D00"/>
</linearGradient>
<linearGradient id="paint1_linear_1688_45" x1="87.4985" y1="58.4891" x2="136.293" y2="58.054" gradientUnits="userSpaceOnUse">
<stop stop-color="#FFCD05"/>
<stop offset="1" stop-color="#FC6D00"/>
</linearGradient>
</defs>
</svg>
